G04 CAM350/DFMSTREAM V11.0 (Build 727) Date:  Mon Aug 24 19:10:19 2026 *
G04 Database: c:\advpcb\spacex\steve\test fixture\ironwood ev band\rev_b\c25344 dwg revb.cam *
G04 Layer 6: rev_b *
%FSLAX24Y24*%
%MOIN*%
%SFA1.000B1.000*%

%MIA0B0*%
%IPPOS*%
%ADD10C,0.06732*%
%ADD15C,0.00200*%
%ADD127C,0.10236*%
%ADD128C,0.11220*%
%ADD129C,0.07677*%
%ADD130C,0.11811*%
%ADD133C,0.06693*%
%ADD134C,0.09449*%
%ADD135C,0.03346*%
%ADD136C,0.00866*%
%ADD137C,0.00394*%
%ADD138C,0.01102*%
%ADD139C,0.01339*%
%ADD140C,0.00906*%
%ADD141C,0.01575*%
%LNrev_b*%
%LPD*%
G54D10*
X81859Y106151D03*
X73881Y113129D03*
X81859D03*
X73881Y106151D03*
G54D127*
X81859Y113129D03*
Y106151D03*
X73881D03*
Y113129D03*
G54D136*
X77870Y109640D03*
G54D137*
Y109640D03*
G54D128*
X81859D03*
X73881D03*
X77870Y113129D03*
Y106151D03*
G54D138*
Y109640D03*
G54D129*
X81859Y113129D03*
Y106151D03*
X73881D03*
Y113129D03*
G54D130*
X77870Y109640D03*
G54D139*
Y109640D03*
G54D140*
Y109640D03*
G54D138*
X79359Y111943D03*
X78495Y109640D03*
X80666Y110341D03*
X76492Y109641D03*
X77909Y111927D03*
X79249Y111214D03*
X78642Y111944D03*
X78495Y108855D03*
X80666Y111342D03*
X76493Y110586D03*
X77871Y111215D03*
X77913Y107336D03*
X76491Y108066D03*
X77870Y110379D03*
X80665Y109012D03*
X77245Y109640D03*
Y110379D03*
X78535Y110931D03*
X78616Y107352D03*
X79248Y110378D03*
X78495Y110379D03*
X76493Y111216D03*
X77246Y111215D03*
X77870Y108856D03*
X79248Y109639D03*
X77244Y108066D03*
X77245Y108856D03*
X79248Y108855D03*
X77869Y108065D03*
X75083Y107922D03*
X78494Y108065D03*
X76521Y107253D03*
X80664Y108012D03*
X75075Y110413D03*
X79247Y108064D03*
X76492Y108856D03*
X75087Y111198D03*
G54D141*
X78495Y108855D03*
X76493Y111216D03*
X78495Y110379D03*
X77246Y111215D03*
X77869Y108065D03*
X75075Y110413D03*
X76492Y108856D03*
X79247Y108064D03*
X75087Y111198D03*
X78494Y108065D03*
X77871Y111215D03*
X76493Y110586D03*
X77870Y109640D03*
X77909Y111927D03*
X78535Y110931D03*
X79249Y111214D03*
X79359Y111943D03*
X78642Y111944D03*
X80666Y111342D03*
Y110341D03*
X80665Y109012D03*
X79248Y110378D03*
X77870Y110379D03*
X77245D03*
X76492Y109641D03*
X77245Y109640D03*
X78495D03*
X79248Y109639D03*
Y108855D03*
X77870Y108856D03*
X77245D03*
X76491Y108066D03*
X77244D03*
X80664Y108012D03*
X78616Y107352D03*
X77913Y107336D03*
X76521Y107253D03*
X75083Y107922D03*
G54D133*
X73881Y109640D03*
X77870Y113129D03*
X81859Y109640D03*
X77870Y106151D03*
G54D134*
X81157Y107376D03*
X74583D03*
Y111904D03*
X81157D03*
G54D133*
X81859Y113129D03*
Y106151D03*
X73881D03*
G54D135*
X81859Y112129D03*
G54D133*
X73881Y113129D03*
G54D135*
Y108151D03*
G54D15*
X77913Y109688D02*
G01X77910Y109691D01*
X77924Y109675D02*
G01X77920Y109681D01*
X77846Y109609D02*
G01X77845Y109610D01*
X77844Y109611*
X77843Y109612*
X77842Y109613*
X77841Y109614*
X77840Y109615*
X77839Y109616*
Y109617*
X77838Y109618*
X77837Y109619*
X77836Y109620*
Y109622*
X77835Y109623*
Y109624*
X77834Y109625*
Y109627*
X77833Y109628*
Y109629*
Y109631*
X77832Y109632*
Y109633*
Y109635*
Y109636*
Y109637*
X77831Y109639*
Y109640*
Y109641*
Y109643*
X77832Y109644*
Y109645*
Y109647*
Y109648*
Y109649*
X77833Y109651*
Y109652*
Y109653*
X77834Y109655*
Y109656*
X77835Y109657*
Y109658*
X77836Y109659*
X77837Y109661*
X77838Y109662*
Y109663*
X77839Y109664*
X77840Y109665*
X77841Y109666*
X77842Y109667*
X77843Y109668*
X77844Y109669*
X77845Y109670*
X77846Y109671*
X77847*
X77848Y109672*
X77849Y109673*
X77850Y109674*
X77852*
X77853Y109675*
X77854*
X77855Y109676*
X77857*
X77858Y109677*
X77859*
X77861*
X77862Y109678*
X77863*
X77865*
X77866*
X77867*
X77869Y109679*
X77870*
X77871*
X77873*
X77874Y109678*
X77875*
X77877*
X77878*
X77879*
X77881Y109677*
X77882*
X77883*
X77885Y109676*
X77886*
X77887Y109675*
X77888Y109674*
X77889*
X77891Y109673*
X77892Y109672*
X77893*
X77910Y109691D02*
G01X77908Y109693D01*
X77906Y109694*
X77904Y109695*
X77902Y109696*
X77900Y109697*
X77898Y109698*
X77896Y109699*
X77894Y109700*
X77892Y109701*
X77890Y109702*
X77888*
X77886Y109703*
X77883*
X77881*
X77879Y109704*
X77877*
X77874*
X77872*
X77870*
X77868*
X77865*
X77863*
X77861Y109703*
X77859*
X77856*
X77854Y109702*
X77852*
X77850Y109701*
X77848Y109700*
X77846*
X77844Y109699*
X77841Y109698*
X77839Y109697*
X77837Y109696*
X77835Y109695*
X77834Y109694*
X77832Y109692*
X77830Y109691*
X77828Y109690*
X77826Y109688*
X77825Y109687*
X77823Y109685*
X77821Y109683*
X77820Y109682*
X77819Y109680*
X77817Y109678*
X77816Y109676*
X77815Y109674*
X77814Y109672*
X77813Y109670*
X77812Y109668*
X77811Y109666*
X77810Y109664*
X77809Y109662*
X77808Y109660*
Y109658*
X77807Y109656*
Y109653*
Y109651*
X77806Y109649*
Y109647*
Y109644*
Y109642*
Y109640*
Y109638*
Y109635*
Y109633*
X77807Y109631*
Y109629*
Y109626*
X77808Y109624*
Y109622*
X77809Y109620*
X77810Y109618*
Y109616*
X77811Y109613*
X77812Y109611*
X77813Y109609*
X77814Y109607*
X77815Y109605*
X77816Y109604*
X77818Y109602*
X77819Y109600*
X77821Y109598*
X77822Y109597*
X77824Y109595*
X77825Y109593*
X77827Y109592*
X77828Y109590*
X77894Y109671D02*
G01X77895Y109670D01*
X77896Y109669*
X77897Y109668*
X77898Y109667*
X77899Y109666*
X77900Y109665*
X77901Y109664*
Y109663*
X77902Y109662*
X77903Y109661*
X77904Y109660*
Y109658*
X77905Y109657*
Y109656*
X77906Y109655*
Y109653*
X77907Y109652*
Y109651*
Y109649*
X77908Y109648*
Y109647*
Y109645*
Y109644*
Y109643*
X77909Y109641*
Y109640*
Y109639*
Y109637*
X77908Y109636*
Y109635*
Y109633*
Y109632*
Y109631*
X77907Y109629*
Y109628*
Y109627*
X77906Y109625*
Y109624*
X77905Y109623*
Y109622*
X77904Y109621*
X77903Y109619*
X77902Y109618*
Y109617*
X77901Y109616*
X77900Y109615*
X77899Y109614*
X77898Y109613*
X77897Y109612*
X77896Y109611*
X77895Y109610*
X77894Y109609*
X77893*
X77892Y109608*
X77891Y109607*
X77890Y109606*
X77888*
X77887Y109605*
X77886*
X77885Y109604*
X77883*
X77882Y109603*
X77881*
X77879*
X77878Y109602*
X77877*
X77875*
X77874*
X77873*
X77871Y109601*
X77870*
X77869*
X77867*
X77866Y109602*
X77865*
X77863*
X77862*
X77861*
X77859Y109603*
X77858*
X77857*
X77855Y109604*
X77854*
X77853Y109605*
X77852Y109606*
X77851*
X77849Y109607*
X77848Y109608*
X77847*
X77830Y109589D02*
G01X77832Y109587D01*
X77834Y109586*
X77836Y109585*
X77837Y109584*
X77839Y109583*
X77841Y109582*
X77843Y109581*
X77845Y109580*
X77847Y109579*
X77849*
X77851Y109578*
X77853*
X77855Y109577*
X77857*
X77860Y109576*
X77862*
X77864*
X77866*
X77868*
X77870*
X77873*
X77875*
X77877*
X77879Y109577*
X77881*
X77883*
X77885Y109578*
X77887*
X77889Y109579*
X77892*
X77894Y109580*
X77896Y109581*
X77898Y109582*
X77899Y109583*
X77901Y109584*
X77903Y109585*
X77905Y109586*
X77907Y109587*
X77909Y109588*
X77911Y109589*
X77912Y109591*
X77914Y109592*
X77915Y109593*
X77917Y109595*
X77918Y109597*
X77920Y109598*
X77921Y109600*
X77923Y109602*
X77924Y109603*
X77925Y109605*
X77926Y109607*
X77927Y109609*
X77928Y109611*
X77929Y109613*
X77930Y109615*
Y109617*
X77931Y109619*
X77932Y109621*
Y109623*
X77933Y109625*
Y109627*
X77934Y109629*
Y109631*
Y109634*
Y109636*
Y109638*
Y109640*
Y109642*
Y109644*
Y109647*
Y109649*
X77933Y109651*
Y109653*
X77932Y109655*
Y109657*
X77931Y109659*
Y109661*
X77930Y109663*
X77929Y109665*
X77928Y109667*
X77927Y109669*
X77926Y109671*
X77925Y109673*
X77924Y109675*
X74244Y107234D02*
G75*
G03X74176Y107115J-79D01*
X74570Y106670D02*
G01X74827Y107115D01*
X73557Y105659D02*
G01X82183D01*
X74759Y107234D02*
G01X74244D01*
X74827Y107115D02*
G03X74759Y107234I-68J39D01*
X73389Y113480D02*
G01Y105800D01*
X74433Y106670D02*
G03X74570Y106670I68J39D01*
X74176Y107115D02*
G01X74433Y106670D01*
X82351Y105800D02*
G01Y113480D01*
X82183Y113621D02*
G01X73557D01*
X78839Y112140D02*
G01X78445D01*
X78839Y111746D02*
G01Y112140D01*
X78445D02*
G01Y111746D01*
Y111746D02*
G01X78839D01*
X78421Y107168D02*
G01X78815D01*
Y107168D02*
G01Y107561D01*
Y107561D02*
G01X78421D01*
Y107561D02*
G01Y107168D01*
X80468Y108207D02*
G01Y107813D01*
Y107813D02*
G01X80862D01*
Y107813D02*
G01Y108207D01*
Y108207D02*
G01X80468D01*
Y109207D02*
G01Y108813D01*
Y108813D02*
G01X80862D01*
Y108813D02*
G01Y109207D01*
Y109207D02*
G01X80468D01*
Y110538D02*
G01Y110144D01*
Y110144D02*
G01X80862D01*
Y110144D02*
G01Y110538D01*
Y110538D02*
G01X80468D01*
Y111538D02*
G01Y111144D01*
Y111144D02*
G01X80862D01*
Y111144D02*
G01Y111538D01*
Y111538D02*
G01X80468D01*
X76323Y107451D02*
G01Y107057D01*
Y107057D02*
G01X76716D01*
Y107057D02*
G01Y107451D01*
Y107451D02*
G01X76323D01*
X74886Y108120D02*
G01Y107727D01*
Y107727D02*
G01X75279D01*
Y107727D02*
G01Y108120D01*
Y108120D02*
G01X74886D01*
X74878Y110609D02*
G01Y110215D01*
Y110215D02*
G01X75272D01*
Y110215D02*
G01Y110609D01*
Y110609D02*
G01X74878D01*
X78110Y107534D02*
G01X77716D01*
Y107534D02*
G01Y107140D01*
Y107140D02*
G01X78110D01*
Y107140D02*
G01Y107534D01*
X77713Y112124D02*
G01Y111731D01*
Y111731D02*
G01X78106D01*
Y111731D02*
G01Y112124D01*
Y112124D02*
G01X77713D01*
X79878Y107527D02*
G01X79484D01*
X79878Y107133D02*
G01Y107527D01*
X79484D02*
G01Y107133D01*
Y107133D02*
G01X79878D01*
X79555Y112140D02*
G01X79161D01*
Y112140D02*
G01Y111746D01*
Y111746D02*
G01X79555D01*
Y111746D02*
G01Y112140D01*
X75283Y111002D02*
G01Y111396D01*
Y111396D02*
G01X74890D01*
Y111396D02*
G01Y111002D01*
Y111002D02*
G01X75283D01*
X75960Y111550D02*
G01Y107730D01*
Y107730D02*
G01X79780D01*
Y107730D02*
G01Y111550D01*
Y111550D02*
G01X75960D01*
X76449Y111719D02*
G01Y112113D01*
Y112113D02*
G01X76055D01*
Y112113D02*
G01Y111719D01*
Y111719D02*
G01X76449D01*
X77352Y111140D02*
G03X78388Y111140I518J593D01*
X81288Y113675D02*
G01X78388Y111140D01*
X73362Y112536D02*
G01X75996Y110233D01*
X79744D02*
G03X79744Y109047I518J-593D01*
X81759Y111995D02*
G01X79744Y110233D01*
X82378Y112536D02*
G01X82005Y112211D01*
X75996Y109047D02*
G01X73362Y106744D01*
X79744Y109047D02*
G01X82378Y106744D01*
X78388Y108140D02*
G03X77352Y108140I-518J-593D01*
X78388D02*
G01X81288Y105605D01*
X77352Y108140D02*
G01X74452Y105605D01*
Y113675D02*
G01X77352Y111140D01*
X75996Y109047D02*
G03X75996Y110233I-518J593D01*
X74448Y105605D02*
G03X73289Y106671I-567J546D01*
X77874Y109577D02*
G01X77888Y109579D01*
X77909Y109589*
X77923Y109606*
X77929Y109623*
X77930Y109642*
X77924Y109662*
X77916Y109674*
X77910Y109679*
X77907Y109681*
X77905Y109682*
X77904*
X77903*
X77902Y109681*
Y109681*
Y109681D02*
G01Y109680D01*
Y109679*
Y109678*
X77903Y109677*
Y109676*
X77904Y109675*
Y109674*
X77905Y109673*
Y109672*
X77906Y109671*
Y109670*
X77907Y109669*
Y109668*
X77908*
Y109667*
Y109666*
X77909Y109665*
Y109663*
Y109662*
X77910Y109661*
Y109660*
Y109659*
X77911Y109658*
Y109657*
Y109656*
Y109655*
X77912Y109654*
Y109653*
Y109652*
Y109651*
Y109650*
Y109649*
Y109648*
Y109647*
X77913Y109646*
Y109645*
Y109643*
Y109642*
X77912Y109641*
Y109640*
Y109639*
Y109638*
Y109637*
Y109636*
Y109635*
X77911Y109634*
Y109633*
Y109632*
Y109631*
X77910Y109630*
Y109629*
Y109628*
X77909Y109627*
Y109626*
X77908Y109625*
Y109624*
Y109623*
X77907Y109622*
Y109621*
X77906Y109620*
X77905Y109619*
Y109618*
X77904Y109617*
X77903Y109616*
Y109616*
X77902Y109615*
X77901Y109614*
Y109613*
X77900Y109612*
X77899*
X77898Y109611*
X77897Y109610*
Y109610*
X77896Y109609*
X77895Y109608*
X77894*
X77893Y109607*
X77892*
X77891Y109606*
X77890*
X77889*
X77888Y109605*
X77887*
X77886Y109604*
X77830Y109589D02*
G01X77846Y109609D01*
X77910Y109691D02*
G01X77894Y109671D01*
Y109671D02*
G01X77895Y109670D01*
X77896Y109669*
X77897Y109668*
Y109668*
X77898Y109667*
X77899Y109666*
X77900Y109665*
X77901Y109664*
Y109663*
X77902Y109662*
X77903Y109661*
Y109660*
X77904Y109659*
X77905Y109658*
Y109657*
X77906Y109656*
Y109655*
Y109653*
X77907Y109652*
Y109651*
X77908Y109650*
Y109649*
Y109648*
Y109646*
X77909Y109645*
Y109644*
Y109643*
Y109642*
Y109641*
Y109639*
Y109638*
Y109637*
Y109636*
Y109634*
Y109633*
Y109632*
Y109631*
X77908Y109630*
Y109629*
Y109627*
Y109626*
X77907Y109625*
Y109624*
X77906Y109623*
Y109622*
X77905Y109621*
Y109619*
X77904Y109618*
Y109617*
X77903Y109616*
X77902Y109615*
Y109614*
X77901Y109613*
X77900Y109612*
Y109611*
X77899*
X77898Y109610*
X77897Y109609*
X77896Y109608*
X77895Y109607*
X77894Y109606*
X77893*
X77892Y109605*
X77891Y109604*
X77890*
X77889Y109603*
X77888Y109602*
X77887*
X77886Y109601*
X77885*
X77884Y109600*
X77883*
X77882Y109599*
X77881*
X77879*
X77878Y109598*
X77877*
X77876*
X77875Y109597*
X77874*
X77872*
X77871*
X77870*
X77869Y109596*
X77868*
X77866*
X77865*
X77864*
X77863*
X77862*
X77860*
X77859*
X77858*
X77857*
X77856*
X77854Y109597*
X77853*
X77852*
X77851*
X77850*
X77849Y109598*
X77847*
X77846*
X77845*
X77844Y109599*
X77843*
X77841*
X77840*
X77839*
X77838D02*
G01Y109597D01*
X77839Y109596*
X77840Y109594*
X77841Y109593*
X77842Y109591*
X77844Y109590*
X77845Y109589*
X77846Y109588*
X77848Y109587*
X77850Y109586*
X77851*
X77853Y109585*
X77854Y109584*
X77856*
X77858Y109583*
X77859*
X77861Y109582*
X77863*
X77865Y109581*
X77866*
X77868*
X77870*
X77872*
X77874*
X77875*
X77877*
X77879*
X77881*
X77882*
X77884*
X77886Y109582*
X77888*
X77889*
X77891Y109583*
X77893*
X77895Y109584*
X77896Y109585*
X77898*
X77900Y109586*
X77901Y109587*
X77903*
X77904Y109588*
X77906Y109589*
X77907Y109590*
X77909Y109591*
X77910Y109592*
X77912Y109593*
X77913Y109594*
X77914Y109595*
X77916Y109597*
X77917Y109598*
X77918Y109599*
X77919Y109600*
X77921Y109602*
X77922Y109603*
X77923Y109605*
X77924Y109606*
X77925Y109608*
X77926Y109609*
X77927Y109611*
Y109612*
X77928Y109614*
X77929Y109616*
Y109617*
X77930Y109619*
X77931Y109621*
Y109622*
X77932Y109624*
Y109626*
Y109627*
X77933Y109629*
Y109631*
Y109633*
Y109635*
X77934Y109636*
Y109638*
Y109640*
Y109642*
Y109643*
X77933Y109645*
Y109647*
Y109649*
Y109650*
Y109652*
X77932Y109654*
Y109656*
Y109657*
X77931Y109659*
Y109661*
X77930Y109663*
X77929Y109664*
Y109666*
X77928Y109668*
X77927Y109669*
Y109671*
X77926Y109672*
X77925Y109674*
X77924Y109676*
X77923Y109677*
X77922Y109679*
X77921Y109680*
X77920Y109681*
X77919Y109683*
X77918Y109684*
X77916Y109685*
X77915Y109687*
X77914Y109688*
X77913Y109689*
X77911Y109690*
X81292Y113675D02*
G03X81859Y112342I567J-546D01*
Y112342D02*
G03X82451Y112609J787D01*
Y106671D02*
G03X81292Y105605I-592J-520D01*
X74448D02*
G03X73289Y106671I-567J546D01*
Y112609D02*
G03X73881Y112342I592J520D01*
Y112342D02*
G03X74448Y113675J787D01*
X82183Y105659D02*
G01X82351D01*
X73389D02*
G01X73557D01*
X73389Y105800D02*
G01Y105659D01*
Y113621D02*
G01Y113480D01*
X82351D02*
G01Y113621D01*
Y105659D02*
G01Y105800D01*
X73557Y113621D02*
G01X73389D01*
X82351D02*
G01X82183D01*
X81341Y113722D02*
G01X81288Y113675D01*
X82005Y112211D02*
G01X81759Y111995D01*
X81288Y105605D02*
G01X81341Y105558D01*
X74452Y105605D02*
G01X74399Y105558D01*
Y113722D02*
G01X74452Y113675D01*
X73289Y106671D02*
G03X73881Y105363I592J-520D01*
Y105363D02*
G03X74448Y105605J787D01*
X73289Y113183D02*
G01Y110221D01*
X73230Y109853D02*
G03X73289Y110221I-1122J368D01*
X73230Y109853D02*
G03X73230Y109427I650J-213D01*
X73289Y109059D02*
G03X73230Y109427I-1181D01*
X73289Y109059D02*
G01Y106097D01*
Y106097D02*
G03X73781Y105605I492D01*
Y105605D02*
G01X77235D01*
X77642Y105532D02*
G03X77235Y105605I-408J-1108D01*
X77642Y105532D02*
G03X78098Y105532I228J619D01*
X78505Y105605D02*
G03X78098Y105532J-1181D01*
X78505Y105605D02*
G01X81959D01*
Y105605D02*
G03X82451Y106097J492D01*
Y106097D02*
G01Y109059D01*
X82510Y109427D02*
G03X82451Y109059I1122J-368D01*
X82510Y109427D02*
G03X82510Y109853I-650J213D01*
X82451Y110221D02*
G03X82510Y109853I1181D01*
X82451Y110221D02*
G01Y113183D01*
Y113183D02*
G03X81959Y113675I-492D01*
Y113675D02*
G01X78575D01*
X78129Y113763D02*
G03X78575Y113675I446J1094D01*
X78129Y113763D02*
G03X77611Y113763I-259J-634D01*
X77165Y113675D02*
G03X77611Y113763J1181D01*
X77165Y113675D02*
G01X73781D01*
Y113675D02*
G03X73289Y113183J-492D01*
X82451Y112609D02*
G03X81292Y113675I-592J520D01*
Y105605D02*
G03X81859Y105363I567J546D01*
Y105363D02*
G03X82451Y106671J787D01*
X73289D02*
G03X73882Y105363I592J-520D01*
Y105363D02*
G03X74448Y105605I-1J787D01*
Y113675D02*
G03X73289Y112609I-567J-546D01*
M02*
