o fixtureTop
v 0.625 -0.10000000149011612 -0.625
v 0.25 -0.10000000149011612 -0.20000000298023224
v 0.3037756085395813 -0.10000000149011612 -0.14999999105930328
v 0.20000000298023224 -0.10000000149011612 -0.3162243962287903
v 0.20000000298023224 -0.10000000149011612 -0.25377559661865234
v 0.4881639778614044 -0.10000000149011612 0.21932964026927948
v 0.5289226770401001 -0.10000000149011612 0.25060486793518066
v 0.5601979494094849 -0.10000000149011612 0.29136356711387634
v 0.36622440814971924 -0.10000000149011612 0.15000000596046448
v 0.4406994581222534 -0.10000000149011612 0.19966918230056763
v 0.36622440814971924 -0.10000000149011612 -0.14999999105930328
v -0.20000000298023224 -0.10000000149011612 -0.3162243962287903
v -0.25060486793518066 -0.10000000149011612 -0.5289226770401001
v -0.21932964026927948 -0.10000000149011612 -0.4881639778614044
v -0.29136356711387634 -0.10000000149011612 -0.5601979494094849
v -0.19966918230056763 -0.10000000149011612 -0.4406994581222534
v -0.1929633766412735 -0.10000000149011612 -0.3897637724876404
v -0.19966918230056763 -0.10000000149011612 -0.33882808685302734
v 0.25 -0.10000000149011612 0.20000000298023224
v -0.25 -0.10000000149011612 -0.20000000298023224
v 0.5798583626747131 -0.10000000149011612 0.33882808685302734
v 0.625 -0.10000000149011612 0.625
v 0.3897637724876404 -0.10000000149011612 0.1929633766412735
v 0.33882808685302734 -0.10000000149011612 0.19966918230056763
v 0.3037756085395813 -0.10000000149011612 0.15000000596046448
v 0.5865641832351685 -0.10000000149011612 0.3897637724876404
v 0.5798583626747131 -0.10000000149011612 0.4406994581222534
v 0.5601979494094849 -0.10000000149011612 0.4881639778614044
v 0.5289226770401001 -0.10000000149011612 0.5289226770401001
v 0.4881639778614044 -0.10000000149011612 0.5601979494094849
v 0.4406994581222534 -0.10000000149011612 0.5798583626747131
v 0.3897637724876404 -0.10000000149011612 0.5865641832351685
v 0.33882808685302734 -0.10000000149011612 0.5798583626747131
v 0.625 -0.10000000149011612 -0.625
v 0.625 -0.10000000149011612 0.625
v 0.625 0.09999999403953552 0.625
v 0.29136356711387634 -0.10000000149011612 0.21932964026927948
v 0.25060486793518066 -0.10000000149011612 0.25060486793518066
v 0.20000000298023224 -0.10000000149011612 0.25377559661865234
v 0.21932964026927948 -0.10000000149011612 0.29136356711387634
v 0.20000000298023224 -0.10000000149011612 0.3162243962287903
v -0.25 -0.10000000149011612 0.20000000298023224
v 0.19966918230056763 -0.10000000149011612 0.33882808685302734
v -0.625 -0.10000000149011612 0.625
v 0.29136356711387634 -0.10000000149011612 0.5601979494094849
v 0.625 -0.10000000149011612 0.625
v -0.625 -0.10000000149011612 0.625
v 0.625 0.09999999403953552 0.625
v 0.625 0.09999999403953552 -0.625
v 0.625 0.09999999403953552 -0.625
v 0.46632060408592224 0.09999999403953552 0.3132069408893585
v 0.44389763474464417 0.09999999403953552 0.2960011661052704
v 0.41778552532196045 0.09999999403953552 0.28518518805503845
v 0.3897637724876404 0.09999999403953552 0.2814960479736328
v 0.3617420196533203 0.09999999403953552 0.28518518805503845
v 0.3356299102306366 0.09999999403953552 0.2960011661052704
v 0.3132069408893585 0.09999999403953552 0.3132069408893585
v 0.625 -0.10000000149011612 -0.625
v 0.625 0.09999999403953552 -0.625
v -0.625 0.09999999403953552 -0.625
v -0.2960011661052704 0.09999999403953552 -0.44389763474464417
v -0.3132069408893585 0.09999999403953552 -0.46632060408592224
v -0.28518518805503845 0.09999999403953552 -0.41778552532196045
v -0.2814960479736328 0.09999999403953552 -0.3897637724876404
v -0.28518518805503845 0.09999999403953552 -0.3617420196533203
v -0.2960011661052704 0.09999999403953552 -0.3356299102306366
v 0.625 0.09999999403953552 0.625
v 0.4835263788700104 0.09999999403953552 0.3356299102306366
v 0.4943423569202423 0.09999999403953552 0.3617420196533203
v 0.49803149700164795 0.09999999403953552 0.3897637724876404
v 0.4943423569202423 0.09999999403953552 0.41778552532196045
v 0.4835263788700104 0.09999999403953552 0.44389763474464417
v 0.46632060408592224 0.09999999403953552 0.46632060408592224
v 0.44389763474464417 0.09999999403953552 0.4835263788700104
v 0.41778552532196045 0.09999999403953552 0.4943423569202423
v 0.3897637724876404 0.09999999403953552 0.49803149700164795
v 0.3617420196533203 0.09999999403953552 0.4943423569202423
v 0.3356299102306366 0.09999999403953552 0.4835263788700104
v 0.2960011661052704 0.09999999403953552 0.3356299102306366
v -0.3132069408893585 0.09999999403953552 -0.3132069408893585
v -0.625 0.09999999403953552 0.625
v 0.3132069408893585 0.09999999403953552 0.46632060408592224
v -0.33882808685302734 -0.10000000149011612 -0.5798583626747131
v -0.625 -0.10000000149011612 -0.625
v -0.21932964026927948 -0.10000000149011612 -0.29136356711387634
v -0.20000000298023224 -0.10000000149011612 -0.25377559661865234
v -0.25060486793518066 -0.10000000149011612 -0.25060486793518066
v -0.29136356711387634 -0.10000000149011612 -0.21932964026927948
v -0.3037756085395813 -0.10000000149011612 -0.14999999105930328
v -0.33882808685302734 -0.10000000149011612 -0.19966918230056763
v -0.3037756085395813 -0.10000000149011612 0.15000000596046448
v -0.625 -0.10000000149011612 -0.625
v -0.3897637724876404 -0.10000000149011612 -0.5865641832351685
v -0.4406994581222534 -0.10000000149011612 -0.5798583626747131
v -0.4881639778614044 -0.10000000149011612 -0.5601979494094849
v -0.5289226770401001 -0.10000000149011612 -0.5289226770401001
v -0.5601979494094849 -0.10000000149011612 -0.4881639778614044
v -0.5798583626747131 -0.10000000149011612 -0.4406994581222534
v -0.5865641832351685 -0.10000000149011612 -0.3897637724876404
v -0.5798583626747131 -0.10000000149011612 -0.33882808685302734
v -0.36622440814971924 -0.10000000149011612 -0.14999999105930328
v -0.3897637724876404 -0.10000000149011612 -0.1929633766412735
v -0.4406994581222534 -0.10000000149011612 -0.19966918230056763
v -0.5601979494094849 -0.10000000149011612 -0.29136356711387634
v -0.625 -0.10000000149011612 -0.625
v -0.625 0.09999999403953552 -0.625
v -0.625 -0.10000000149011612 0.625
v -0.20000000298023224 -0.10000000149011612 0.25377559661865234
v 0.1929633766412735 -0.10000000149011612 0.3897637724876404
v 0.19966918230056763 -0.10000000149011612 0.4406994581222534
v 0.21932964026927948 -0.10000000149011612 0.4881639778614044
v 0.25060486793518066 -0.10000000149011612 0.5289226770401001
v -0.20000000298023224 -0.10000000149011612 0.3162243962287903
v -0.36622440814971924 -0.10000000149011612 0.15000000596046448
v -0.4881639778614044 -0.10000000149011612 -0.21932964026927948
v -0.5289226770401001 -0.10000000149011612 -0.25060486793518066
v -0.3356299102306366 0.09999999403953552 -0.4835263788700104
v -0.625 0.09999999403953552 -0.625
v -0.3617420196533203 0.09999999403953552 -0.4943423569202423
v -0.3897637724876404 0.09999999403953552 -0.49803149700164795
v -0.41778552532196045 0.09999999403953552 -0.4943423569202423
v -0.44389763474464417 0.09999999403953552 -0.4835263788700104
v -0.46632060408592224 0.09999999403953552 -0.46632060408592224
v -0.4835263788700104 0.09999999403953552 -0.44389763474464417
v -0.4943423569202423 0.09999999403953552 -0.41778552532196045
v -0.49803149700164795 0.09999999403953552 -0.3897637724876404
v -0.4943423569202423 0.09999999403953552 -0.3617420196533203
v -0.4835263788700104 0.09999999403953552 -0.3356299102306366
v -0.46632060408592224 0.09999999403953552 -0.3132069408893585
v -0.625 0.09999999403953552 0.625
v 0.28518518805503845 0.09999999403953552 0.3617420196533203
v 0.2814960479736328 0.09999999403953552 0.3897637724876404
v 0.28518518805503845 0.09999999403953552 0.41778552532196045
v 0.2960011661052704 0.09999999403953552 0.44389763474464417
v -0.625 0.09999999403953552 0.625
v -0.3356299102306366 0.09999999403953552 -0.2960011661052704
v -0.3617420196533203 0.09999999403953552 -0.28518518805503845
v -0.3897637724876404 0.09999999403953552 -0.2814960479736328
v -0.41778552532196045 0.09999999403953552 -0.28518518805503845
v -0.44389763474464417 0.09999999403953552 -0.2960011661052704
v 0.25 -0.10000000149011612 -0.20000000298023224
v 0.25 0 -0.20000000298023224
v 0.25 -0.10000000149011612 0.20000000298023224
v 0.25 -0.10000000149011612 -0.20000000298023224
v -0.25 0 -0.20000000298023224
v 0.25 0 -0.20000000298023224
v 0.25 -0.10000000149011612 0.20000000298023224
v 0.25 0 0.20000000298023224
v -0.25 -0.10000000149011612 0.20000000298023224
v 0.25 0 0.20000000298023224
v 0.25 0 -0.20000000298023224
v -0.25 0 -0.20000000298023224
v 0.25 0 0.20000000298023224
v -0.25 -0.10000000149011612 -0.20000000298023224
v -0.25 -0.10000000149011612 -0.20000000298023224
v -0.25 0 0.20000000298023224
v -0.25 0 -0.20000000298023224
v -0.25 -0.10000000149011612 0.20000000298023224
v -0.25 0 0.20000000298023224
v -0.25 0 0.20000000298023224
v 0.36622440814971924 -0.10000000149011612 -0.14999999105930328
v 0.3037756085395813 -0.10000000149011612 -0.14999999105930328
v 0.33500000834465027 -0.010787397623062134 -0.14999999105930328
v 0.36622440814971924 -0.10000000149011612 -0.14999999105930328
v 0.33500000834465027 -0.010787397623062134 -0.14999999105930328
v 0.36622440814971924 -0.10000000149011612 0.15000000596046448
v 0.33500000834465027 -0.010787397623062134 -0.14999999105930328
v 0.3037756085395813 -0.10000000149011612 -0.14999999105930328
v 0.33500000834465027 -0.010787397623062134 0.15000000596046448
v 0.20000000298023224 -0.10000000149011612 -0.3162243962287903
v 0.20000000298023224 -0.010787397623062134 -0.2849999964237213
v 0.20000000298023224 -0.10000000149011612 -0.25377559661865234
v 0.20000000298023224 -0.10000000149011612 -0.3162243962287903
v -0.20000000298023224 -0.010787397623062134 -0.2849999964237213
v 0.20000000298023224 -0.010787397623062134 -0.2849999964237213
v 0.20000000298023224 -0.10000000149011612 -0.25377559661865234
v 0.20000000298023224 -0.010787397623062134 -0.2849999964237213
v -0.20000000298023224 -0.010787397623062134 -0.2849999964237213
v 0.3037756085395813 -0.10000000149011612 0.15000000596046448
v 0.36622440814971924 -0.10000000149011612 0.15000000596046448
v 0.33500000834465027 -0.010787397623062134 0.15000000596046448
v 0.3037756085395813 -0.10000000149011612 0.15000000596046448
v 0.33500000834465027 -0.010787397623062134 0.15000000596046448
v 0.20000000298023224 -0.10000000149011612 0.25377559661865234
v 0.20000000298023224 -0.010787397623062134 0.2849999964237213
v 0.20000000298023224 -0.10000000149011612 0.3162243962287903
v 0.20000000298023224 -0.10000000149011612 0.3162243962287903
v 0.20000000298023224 -0.010787397623062134 0.2849999964237213
v -0.20000000298023224 -0.10000000149011612 0.3162243962287903
v 0.20000000298023224 -0.10000000149011612 0.25377559661865234
v -0.20000000298023224 -0.010787397623062134 0.2849999964237213
v 0.20000000298023224 -0.010787397623062134 0.2849999964237213
v -0.20000000298023224 -0.10000000149011612 -0.3162243962287903
v -0.20000000298023224 -0.10000000149011612 -0.25377559661865234
v -0.20000000298023224 -0.10000000149011612 -0.3162243962287903
v -0.20000000298023224 -0.10000000149011612 -0.25377559661865234
v -0.20000000298023224 -0.010787397623062134 -0.2849999964237213
v -0.3037756085395813 -0.10000000149011612 -0.14999999105930328
v -0.36622440814971924 -0.10000000149011612 -0.14999999105930328
v -0.33500000834465027 -0.010787397623062134 -0.14999999105930328
v -0.3037756085395813 -0.10000000149011612 -0.14999999105930328
v -0.33500000834465027 -0.010787397623062134 -0.14999999105930328
v -0.3037756085395813 -0.10000000149011612 0.15000000596046448
v -0.36622440814971924 -0.10000000149011612 -0.14999999105930328
v -0.33500000834465027 -0.010787397623062134 0.15000000596046448
v -0.33500000834465027 -0.010787397623062134 -0.14999999105930328
v -0.20000000298023224 -0.10000000149011612 0.25377559661865234
v -0.20000000298023224 -0.10000000149011612 0.25377559661865234
v -0.20000000298023224 -0.10000000149011612 0.3162243962287903
v -0.20000000298023224 -0.010787397623062134 0.2849999964237213
v -0.20000000298023224 -0.010787397623062134 0.2849999964237213
v -0.36622440814971924 -0.10000000149011612 0.15000000596046448
v -0.3037756085395813 -0.10000000149011612 0.15000000596046448
v -0.33500000834465027 -0.010787397623062134 0.15000000596046448
v -0.36622440814971924 -0.10000000149011612 0.15000000596046448
v -0.33500000834465027 -0.010787397623062134 0.15000000596046448
v 0.5601979494094849 -0.10000000149011612 0.29136356711387634
v 0.5289226770401001 -0.10000000149011612 0.25060486793518066
v 0.46632060408592224 -0.011465050280094147 0.3132069408893585
v 0.4881639778614044 -0.10000000149011612 0.21932964026927948
v 0.44389763474464417 -0.011465080082416534 0.2960011661052704
v 0.4406994581222534 -0.10000000149011612 0.19966918230056763
v 0.3897637724876404 -0.10000000149011612 0.1929633766412735
v 0.3897637724876404 -0.011465072631835938 0.2814960479736328
v 0.41778552532196045 -0.011465072631835938 0.28518518805503845
v 0.33882808685302734 -0.10000000149011612 0.19966918230056763
v 0.3617420494556427 -0.01146506518125534 0.28518518805503845
v 0.29136356711387634 -0.10000000149011612 0.21932964026927948
v 0.3356299102306366 -0.011465087532997131 0.2960011661052704
v 0.5865641832351685 -0.10000000149011612 0.3897637724876404
v 0.5798583626747131 -0.10000000149011612 0.33882808685302734
v 0.4943423569202423 -0.011465080082416534 0.3617420494556427
v 0.49803149700164795 -0.011465057730674744 0.3897637724876404
v 0.5798583626747131 -0.10000000149011612 0.4406994581222534
v 0.4835263788700104 -0.011465080082416534 0.3356299102306366
v 0.4943423569202423 -0.011465080082416534 0.41778552532196045
v 0.5601979494094849 -0.10000000149011612 0.4881639778614044
v 0.4835263788700104 -0.011465072631835938 0.44389763474464417
v 0.5289226770401001 -0.10000000149011612 0.5289226770401001
v 0.5289226770401001 -0.10000000149011612 0.5289226770401001
v 0.46632060408592224 -0.011465050280094147 0.46632060408592224
v 0.4881639778614044 -0.10000000149011612 0.5601979494094849
v 0.44389763474464417 -0.011465080082416534 0.4835263788700104
v 0.4406994581222534 -0.10000000149011612 0.5798583626747131
v 0.41778549551963806 -0.011465080082416534 0.4943423569202423
v 0.3897637724876404 -0.10000000149011612 0.5865641832351685
v 0.33882808685302734 -0.10000000149011612 0.5798583626747131
v 0.3617420196533203 -0.011465080082416534 0.4943423569202423
v 0.29136356711387634 -0.10000000149011612 0.5601979494094849
v 0.3897637724876404 -0.011465057730674744 0.49803149700164795
v 0.44389763474464417 -0.011465087532997131 0.2960011661052704
v 0.41778549551963806 -0.01146506518125534 0.28518518805503845
v 0.3617420196533203 -0.011465072631835938 0.28518518805503845
v 0.3356299102306366 -0.011465080082416534 0.2960011661052704
v 0.3132069408893585 -0.011465050280094147 0.3132069408893585
v 0.4835263788700104 -0.011465072631835938 0.3356299102306366
v 0.4943423569202423 -0.011465080082416534 0.3617420196533203
v 0.4943423569202423 -0.011465080082416534 0.41778549551963806
v 0.4835263788700104 -0.011465080082416534 0.44389763474464417
v 0.46632060408592224 -0.011465050280094147 0.46632060408592224
v 0.44389763474464417 -0.011465072631835938 0.4835263788700104
v 0.41778552532196045 -0.011465080082416534 0.4943423569202423
v 0.3617420494556427 -0.011465080082416534 0.4943423569202423
v 0.3356299102306366 -0.011465080082416534 0.4835263788700104
v 0.3356299102306366 -0.011465072631835938 0.4835263788700104
v 0.25060486793518066 -0.10000000149011612 0.25060486793518066
v 0.25060486793518066 -0.10000000149011612 0.25060486793518066
v 0.21932964026927948 -0.10000000149011612 0.29136356711387634
v 0.2960011661052704 -0.011465080082416534 0.3356299102306366
v 0.19966918230056763 -0.10000000149011612 0.33882808685302734
v 0.28518518805503845 -0.011465072631835938 0.3617420196533203
v 0.19966918230056763 -0.10000000149011612 0.4406994581222534
v 0.21932964026927948 -0.10000000149011612 0.4881639778614044
v 0.2960011661052704 -0.011465087532997131 0.44389763474464417
v 0.1929633766412735 -0.10000000149011612 0.3897637724876404
v 0.2814960479736328 -0.011465072631835938 0.3897637724876404
v 0.1929633766412735 -0.10000000149011612 0.3897637724876404
v 0.28518518805503845 -0.01146506518125534 0.41778549551963806
v 0.25060486793518066 -0.10000000149011612 0.5289226770401001
v 0.3132069408893585 -0.011465050280094147 0.46632060408592224
v 0.3132069408893585 -0.011465050280094147 0.3132069408893585
v 0.2960011661052704 -0.011465087532997131 0.3356299102306366
v 0.28518518805503845 -0.01146506518125534 0.3617420494556427
v 0.2960011661052704 -0.011465080082416534 0.44389763474464417
v 0.28518518805503845 -0.011465072631835938 0.41778552532196045
v 0.2814960479736328 -0.011465072631835938 0.3897637724876404
v 0.44389763474464417 -0.011465080082416534 0.2960011661052704
v 0.44389763474464417 0.09999999403953552 0.2960011661052704
v 0.46632060408592224 -0.011465050280094147 0.3132069408893585
v 0.44389763474464417 -0.011465087532997131 0.2960011661052704
v 0.41778552532196045 -0.011465072631835938 0.28518518805503845
v 0.41778552532196045 0.09999999403953552 0.28518518805503845
v 0.41778549551963806 -0.01146506518125534 0.28518518805503845
v 0.3897637724876404 -0.011465072631835938 0.2814960479736328
v 0.3897637724876404 0.09999999403953552 0.2814960479736328
v 0.3897637724876404 -0.011465072631835938 0.2814960479736328
v 0.3617420494556427 -0.01146506518125534 0.28518518805503845
v 0.3617420196533203 0.09999999403953552 0.28518518805503845
v 0.3617420196533203 -0.011465072631835938 0.28518518805503845
v 0.3356299102306366 -0.011465087532997131 0.2960011661052704
v 0.3356299102306366 0.09999999403953552 0.2960011661052704
v 0.3356299102306366 -0.011465080082416534 0.2960011661052704
v 0.3132069408893585 -0.011465050280094147 0.3132069408893585
v 0.3132069408893585 0.09999999403953552 0.3132069408893585
v 0.4835263788700104 -0.011465072631835938 0.3356299102306366
v 0.46632060408592224 -0.011465050280094147 0.3132069408893585
v 0.46632060408592224 0.09999999403953552 0.3132069408893585
v 0.4835263788700104 0.09999999403953552 0.3356299102306366
v 0.4835263788700104 -0.011465080082416534 0.3356299102306366
v 0.4943423569202423 -0.011465080082416534 0.3617420196533203
v 0.4943423569202423 -0.011465080082416534 0.3617420494556427
v 0.4943423569202423 0.09999999403953552 0.3617420196533203
v 0.49803149700164795 -0.011465057730674744 0.3897637724876404
v 0.49803149700164795 -0.011465057730674744 0.3897637724876404
v 0.49803149700164795 0.09999999403953552 0.3897637724876404
v 0.4943423569202423 -0.011465080082416534 0.41778549551963806
v 0.4943423569202423 0.09999999403953552 0.41778552532196045
v 0.4943423569202423 -0.011465080082416534 0.41778552532196045
v 0.4835263788700104 -0.011465080082416534 0.44389763474464417
v 0.4835263788700104 -0.011465072631835938 0.44389763474464417
v 0.4835263788700104 0.09999999403953552 0.44389763474464417
v 0.46632060408592224 -0.011465050280094147 0.46632060408592224
v 0.46632060408592224 0.09999999403953552 0.46632060408592224
v 0.44389763474464417 -0.011465072631835938 0.4835263788700104
v 0.44389763474464417 0.09999999403953552 0.4835263788700104
v 0.44389763474464417 -0.011465080082416534 0.4835263788700104
v 0.41778552532196045 -0.011465080082416534 0.4943423569202423
v 0.41778549551963806 -0.011465080082416534 0.4943423569202423
v 0.41778552532196045 0.09999999403953552 0.4943423569202423
v 0.3897637724876404 -0.011465057730674744 0.49803149700164795
v 0.3897637724876404 -0.011465057730674744 0.49803149700164795
v 0.3897637724876404 0.09999999403953552 0.49803149700164795
v 0.3617420494556427 -0.011465080082416534 0.4943423569202423
v 0.3617420196533203 0.09999999403953552 0.4943423569202423
v 0.3617420196533203 -0.011465080082416534 0.4943423569202423
v 0.3356299102306366 -0.011465080082416534 0.4835263788700104
v 0.3356299102306366 -0.011465072631835938 0.4835263788700104
v 0.3356299102306366 0.09999999403953552 0.4835263788700104
v 0.3132069408893585 -0.011465050280094147 0.46632060408592224
v 0.46632060408592224 0.09999999403953552 0.3132069408893585
v 0.3897637724876404 0.09999999403953552 0.2814960479736328
v 0.49803149700164795 0.09999999403953552 0.3897637724876404
v 0.46632060408592224 0.09999999403953552 0.46632060408592224
v 0.3897637724876404 0.09999999403953552 0.49803149700164795
v 0.3132069408893585 0.09999999403953552 0.46632060408592224
v 0.2960011661052704 -0.011465080082416534 0.3356299102306366
v 0.2960011661052704 0.09999999403953552 0.3356299102306366
v 0.2960011661052704 -0.011465087532997131 0.3356299102306366
v 0.28518518805503845 -0.011465072631835938 0.3617420196533203
v 0.28518518805503845 0.09999999403953552 0.3617420196533203
v 0.28518518805503845 -0.01146506518125534 0.3617420494556427
v 0.2814960479736328 -0.011465072631835938 0.3897637724876404
v 0.2814960479736328 0.09999999403953552 0.3897637724876404
v 0.2814960479736328 -0.011465072631835938 0.3897637724876404
v 0.28518518805503845 -0.01146506518125534 0.41778549551963806
v 0.28518518805503845 0.09999999403953552 0.41778552532196045
v 0.28518518805503845 -0.011465072631835938 0.41778552532196045
v 0.2960011661052704 -0.011465080082416534 0.44389763474464417
v 0.2960011661052704 0.09999999403953552 0.44389763474464417
v 0.2960011661052704 -0.011465087532997131 0.44389763474464417
v 0.3132069408893585 -0.011465050280094147 0.46632060408592224
v 0.3132069408893585 0.09999999403953552 0.46632060408592224
v 0.2814960479736328 0.09999999403953552 0.3897637724876404
v -0.3132069408893585 -0.011465050280094147 -0.46632060408592224
v -0.21932964026927948 -0.10000000149011612 -0.4881639778614044
v -0.25060486793518066 -0.10000000149011612 -0.5289226770401001
v -0.3356299102306366 -0.011465072631835938 -0.4835263788700104
v -0.29136356711387634 -0.10000000149011612 -0.5601979494094849
v -0.28518518805503845 -0.01146506518125534 -0.41778549551963806
v -0.1929633766412735 -0.10000000149011612 -0.3897637724876404
v -0.19966918230056763 -0.10000000149011612 -0.4406994581222534
v -0.2814960479736328 -0.011465072631835938 -0.3897637724876404
v -0.19966918230056763 -0.10000000149011612 -0.33882808685302734
v -0.2960011661052704 -0.011465087532997131 -0.44389763474464417
v -0.28518518805503845 -0.011465072631835938 -0.3617420196533203
v -0.21932964026927948 -0.10000000149011612 -0.29136356711387634
v -0.2960011661052704 -0.011465080082416534 -0.3356299102306366
v -0.25060486793518066 -0.10000000149011612 -0.25060486793518066
v -0.3132069408893585 -0.011465050280094147 -0.3132069408893585
v -0.29136356711387634 -0.10000000149011612 -0.21932964026927948
v -0.25060486793518066 -0.10000000149011612 -0.25060486793518066
v -0.2960011661052704 -0.011465080082416534 -0.44389763474464417
v -0.28518518805503845 -0.011465072631835938 -0.41778552532196045
v -0.28518518805503845 -0.01146506518125534 -0.3617420494556427
v -0.2960011661052704 -0.011465087532997131 -0.3356299102306366
v -0.3132069408893585 -0.011465050280094147 -0.3132069408893585
v -0.3897637724876404 -0.011465057730674744 -0.49803149700164795
v -0.33882808685302734 -0.10000000149011612 -0.5798583626747131
v -0.3897637724876404 -0.10000000149011612 -0.5865641832351685
v -0.3617420196533203 -0.011465080082416534 -0.4943423569202423
v -0.41778549551963806 -0.011465080082416534 -0.4943423569202423
v -0.4406994581222534 -0.10000000149011612 -0.5798583626747131
v -0.44389763474464417 -0.011465080082416534 -0.4835263788700104
v -0.4881639778614044 -0.10000000149011612 -0.5601979494094849
v -0.46632060408592224 -0.011465050280094147 -0.46632060408592224
v -0.5289226770401001 -0.10000000149011612 -0.5289226770401001
v -0.4835263788700104 -0.011465072631835938 -0.44389763474464417
v -0.5289226770401001 -0.10000000149011612 -0.5289226770401001
v -0.5601979494094849 -0.10000000149011612 -0.4881639778614044
v -0.4943423569202423 -0.011465080082416534 -0.41778552532196045
v -0.5798583626747131 -0.10000000149011612 -0.4406994581222534
v -0.4835263788700104 -0.011465080082416534 -0.3356299102306366
v -0.5798583626747131 -0.10000000149011612 -0.33882808685302734
v -0.5601979494094849 -0.10000000149011612 -0.29136356711387634
v -0.49803149700164795 -0.011465057730674744 -0.3897637724876404
v -0.5865641832351685 -0.10000000149011612 -0.3897637724876404
v -0.4943423569202423 -0.011465080082416534 -0.3617420494556427
v -0.5865641832351685 -0.10000000149011612 -0.3897637724876404
v -0.3356299102306366 -0.011465087532997131 -0.2960011661052704
v -0.33882808685302734 -0.10000000149011612 -0.19966918230056763
v -0.3617420494556427 -0.01146506518125534 -0.28518518805503845
v -0.3897637724876404 -0.10000000149011612 -0.1929633766412735
v -0.41778552532196045 -0.011465072631835938 -0.28518518805503845
v -0.4881639778614044 -0.10000000149011612 -0.21932964026927948
v -0.4406994581222534 -0.10000000149011612 -0.19966918230056763
v -0.3897637724876404 -0.011465072631835938 -0.2814960479736328
v -0.44389763474464417 -0.011465080082416534 -0.2960011661052704
v -0.5289226770401001 -0.10000000149011612 -0.25060486793518066
v -0.46632060408592224 -0.011465050280094147 -0.3132069408893585
v -0.3356299102306366 -0.011465080082416534 -0.4835263788700104
v -0.3617420494556427 -0.011465080082416534 -0.4943423569202423
v -0.41778552532196045 -0.011465080082416534 -0.4943423569202423
v -0.44389763474464417 -0.011465072631835938 -0.4835263788700104
v -0.46632060408592224 -0.011465050280094147 -0.46632060408592224
v -0.4835263788700104 -0.011465080082416534 -0.44389763474464417
v -0.4943423569202423 -0.011465080082416534 -0.41778549551963806
v -0.4835263788700104 -0.011465072631835938 -0.3356299102306366
v -0.49803149700164795 -0.011465057730674744 -0.3897637724876404
v -0.4943423569202423 -0.011465080082416534 -0.3617420196533203
v -0.3356299102306366 -0.011465080082416534 -0.2960011661052704
v -0.3617420196533203 -0.011465072631835938 -0.28518518805503845
v -0.41778549551963806 -0.01146506518125534 -0.28518518805503845
v -0.44389763474464417 -0.011465087532997131 -0.2960011661052704
v -0.28518518805503845 -0.011465072631835938 -0.41778552532196045
v -0.2960011661052704 -0.011465087532997131 -0.44389763474464417
v -0.2960011661052704 0.09999999403953552 -0.44389763474464417
v -0.3132069408893585 -0.011465050280094147 -0.46632060408592224
v -0.3132069408893585 0.09999999403953552 -0.46632060408592224
v -0.2960011661052704 -0.011465080082416534 -0.44389763474464417
v -0.28518518805503845 -0.01146506518125534 -0.41778549551963806
v -0.28518518805503845 0.09999999403953552 -0.41778552532196045
v -0.2814960479736328 -0.011465072631835938 -0.3897637724876404
v -0.2814960479736328 -0.011465072631835938 -0.3897637724876404
v -0.2814960479736328 0.09999999403953552 -0.3897637724876404
v -0.28518518805503845 -0.01146506518125534 -0.3617420494556427
v -0.28518518805503845 0.09999999403953552 -0.3617420196533203
v -0.28518518805503845 -0.011465072631835938 -0.3617420196533203
v -0.2960011661052704 -0.011465087532997131 -0.3356299102306366
v -0.2960011661052704 -0.011465080082416534 -0.3356299102306366
v -0.2960011661052704 0.09999999403953552 -0.3356299102306366
v -0.3132069408893585 -0.011465050280094147 -0.3132069408893585
v -0.2814960479736328 0.09999999403953552 -0.3897637724876404
v -0.3132069408893585 0.09999999403953552 -0.3132069408893585
v -0.3132069408893585 -0.011465050280094147 -0.46632060408592224
v -0.3356299102306366 -0.011465072631835938 -0.4835263788700104
v -0.3356299102306366 0.09999999403953552 -0.4835263788700104
v -0.3356299102306366 -0.011465080082416534 -0.4835263788700104
v -0.3617420196533203 -0.011465080082416534 -0.4943423569202423
v -0.3617420196533203 0.09999999403953552 -0.4943423569202423
v -0.3617420494556427 -0.011465080082416534 -0.4943423569202423
v -0.3897637724876404 -0.011465057730674744 -0.49803149700164795
v -0.3897637724876404 0.09999999403953552 -0.49803149700164795
v -0.3897637724876404 -0.011465057730674744 -0.49803149700164795
v -0.41778549551963806 -0.011465080082416534 -0.4943423569202423
v -0.41778552532196045 0.09999999403953552 -0.4943423569202423
v -0.41778552532196045 -0.011465080082416534 -0.4943423569202423
v -0.44389763474464417 -0.011465080082416534 -0.4835263788700104
v -0.44389763474464417 0.09999999403953552 -0.4835263788700104
v -0.44389763474464417 -0.011465072631835938 -0.4835263788700104
v -0.46632060408592224 -0.011465050280094147 -0.46632060408592224
v -0.46632060408592224 0.09999999403953552 -0.46632060408592224
v -0.4835263788700104 -0.011465072631835938 -0.44389763474464417
v -0.4835263788700104 0.09999999403953552 -0.44389763474464417
v -0.4835263788700104 -0.011465080082416534 -0.44389763474464417
v -0.4943423569202423 -0.011465080082416534 -0.41778552532196045
v -0.4943423569202423 0.09999999403953552 -0.41778552532196045
v -0.4943423569202423 -0.011465080082416534 -0.41778549551963806
v -0.49803149700164795 -0.011465057730674744 -0.3897637724876404
v -0.49803149700164795 0.09999999403953552 -0.3897637724876404
v -0.49803149700164795 -0.011465057730674744 -0.3897637724876404
v -0.4943423569202423 -0.011465080082416534 -0.3617420494556427
v -0.4943423569202423 0.09999999403953552 -0.3617420196533203
v -0.4943423569202423 -0.011465080082416534 -0.3617420196533203
v -0.4835263788700104 -0.011465080082416534 -0.3356299102306366
v -0.4835263788700104 0.09999999403953552 -0.3356299102306366
v -0.4835263788700104 -0.011465072631835938 -0.3356299102306366
v -0.46632060408592224 -0.011465050280094147 -0.3132069408893585
v -0.46632060408592224 0.09999999403953552 -0.3132069408893585
v -0.3356299102306366 -0.011465080082416534 -0.2960011661052704
v -0.3356299102306366 0.09999999403953552 -0.2960011661052704
v -0.3356299102306366 -0.011465087532997131 -0.2960011661052704
v -0.3617420196533203 -0.011465072631835938 -0.28518518805503845
v -0.3617420494556427 -0.01146506518125534 -0.28518518805503845
v -0.3617420196533203 0.09999999403953552 -0.28518518805503845
v -0.3897637724876404 -0.011465072631835938 -0.2814960479736328
v -0.3897637724876404 -0.011465072631835938 -0.2814960479736328
v -0.3897637724876404 0.09999999403953552 -0.2814960479736328
v -0.41778549551963806 -0.01146506518125534 -0.28518518805503845
v -0.41778552532196045 0.09999999403953552 -0.28518518805503845
v -0.41778552532196045 -0.011465072631835938 -0.28518518805503845
v -0.44389763474464417 -0.011465087532997131 -0.2960011661052704
v -0.44389763474464417 -0.011465080082416534 -0.2960011661052704
v -0.44389763474464417 0.09999999403953552 -0.2960011661052704
v -0.46632060408592224 -0.011465050280094147 -0.3132069408893585
v -0.3132069408893585 0.09999999403953552 -0.46632060408592224
v -0.3897637724876404 0.09999999403953552 -0.49803149700164795
v -0.46632060408592224 0.09999999403953552 -0.46632060408592224
v -0.49803149700164795 0.09999999403953552 -0.3897637724876404
v -0.3897637724876404 0.09999999403953552 -0.2814960479736328
v -0.46632060408592224 0.09999999403953552 -0.3132069408893585
vn 0 -1 0
vn 0 -1 0
vn 0 -1 0
vn 0 -1 0
vn 0 -1 0
vn 0 -1 0
vn 0 -1 0
vn 0 -1 0
vn 0 -1 0
vn 0 -1 0
vn 0 -1 0
vn 0 -1 0
vn 0 -1 0
vn 0 -1 0
vn 0 -1 0
vn 0 -1 0
vn 0 -1 0
vn 0 -1 0
vn 0 -1 0
vn 0 -1 0
vn 0 -1 0
vn 0 -1 0
vn 0 -1 0
vn 0 -1 0
vn 0 -1 0
vn 0 -1 0
vn 0 -1 0
vn 0 -1 0
vn 0 -1 0
vn 0 -1 0
vn 0 -1 0
vn 0 -1 0
vn 0 -1 0
vn 1 0 0
vn 1 0 0
vn 1 0 0
vn 0 -1 0
vn 0 -1 0
vn 0 -1 0
vn 0 -1 0
vn 0 -1 0
vn 0 -1 0
vn 0 -1 0
vn 0 -1 0
vn 0 -1 0
vn 0 0 1
vn 0 0 1
vn 0 0 1
vn 1 0 0
vn 0 1 0
vn 0 1 0
vn 0 1 0
vn 0 1 0
vn 0 1 0
vn 0 1 0
vn 0 1 0
vn 0 1 0
vn 0 0 -1
vn 0 0 -1
vn 0 0 -1
vn 0 1 0
vn 0 1 0
vn 0 1 0
vn 0 1 0
vn 0 1 0
vn 0 1 0
vn 0 1 0
vn 0 1 0
vn 0 1 0
vn 0 1 0
vn 0 1 0
vn 0 1 0
vn 0 1 0
vn 0 1 0
vn 0 1 0
vn 0 1 0
vn 0 1 0
vn 0 1 0
vn 0 1 0
vn 0 1 0
vn 0 1 0
vn 0 1 0
vn 0 -1 0
vn 0 -1 0
vn 0 -1 0
vn 0 -1 0
vn 0 -1 0
vn 0 -1 0
vn 0 -1 0
vn 0 -1 0
vn 0 -1 0
vn 0 0 -1
vn 0 -1 0
vn 0 -1 0
vn 0 -1 0
vn 0 -1 0
vn 0 -1 0
vn 0 -1 0
vn 0 -1 0
vn 0 -1 0
vn 0 -1 0
vn 0 -1 0
vn 0 -1 0
vn 0 -1 0
vn -1 0 0
vn -1 0 0
vn -1 0 0
vn 0 -1 0
vn 0 -1 0
vn 0 -1 0
vn 0 -1 0
vn 0 -1 0
vn 0 -1 0
vn 0 -1 0
vn 0 -1 0
vn 0 -1 0
vn 0 1 0
vn 0 1 0
vn 0 1 0
vn 0 1 0
vn 0 1 0
vn 0 1 0
vn 0 1 0
vn 0 1 0
vn 0 1 0
vn 0 1 0
vn 0 1 0
vn 0 1 0
vn 0 1 0
vn 0 0 1
vn 0 1 0
vn 0 1 0
vn 0 1 0
vn 0 1 0
vn -1 0 0
vn 0 1 0
vn 0 1 0
vn 0 1 0
vn 0 1 0
vn 0 1 0
vn 1 0 0
vn 1 0 0
vn 1 0 0
vn 0 0 -1
vn 0 0 -1
vn 0 0 -1
vn 0 0 1
vn 0 0 1
vn 0 0 1
vn 1 0 0
vn 0 1 0
vn 0 1 0
vn 0 1 0
vn 0 0 -1
vn -1 0 0
vn -1 0 0
vn -1 0 0
vn -1 0 0
vn 0 0 1
vn 0 1 0
vn -1.2246468525851679e-16 -2.220446049250313e-16 -1
vn -1.2246468525851679e-16 -2.220446049250313e-16 -1
vn -1.2246468525851679e-16 -2.220446049250313e-16 -1
vn 0.9438583850860596 0.33035042881965637 -1.88941842662284e-16
vn 0.9438583850860596 0.33035042881965637 -1.88941842662284e-16
vn 0.9438583850860596 0.33035042881965637 -1.88941842662284e-16
vn -0.9438583850860596 0.33035042881965637 4.2236788371578354e-17
vn -0.9438583850860596 0.33035042881965637 4.2236788371578354e-17
vn -0.9438583850860596 0.33035042881965637 4.2236788371578354e-17
vn 1 -2.220446049250313e-16 2.220446049250313e-16
vn 1 -2.220446049250313e-16 2.220446049250313e-16
vn 1 -2.220446049250313e-16 2.220446049250313e-16
vn 2.8293118605824254e-16 0.33035042881965637 -0.9438583850860596
vn 2.8293118605824254e-16 0.33035042881965637 -0.9438583850860596
vn 2.8293118605824254e-16 0.33035042881965637 -0.9438583850860596
vn -1.3622612515009198e-16 0.33035042881965637 0.9438583850860596
vn -1.3622612515009198e-16 0.33035042881965637 0.9438583850860596
vn -1.3622612515009198e-16 0.33035042881965637 0.9438583850860596
vn -0.9438583850860596 0.33035042881965637 4.2236788371578354e-17
vn 1.2246468525851679e-16 2.220446049250313e-16 1
vn 1.2246468525851679e-16 2.220446049250313e-16 1
vn 1.2246468525851679e-16 2.220446049250313e-16 1
vn 0.9438583850860596 0.33035042881965637 -1.88941842662284e-16
vn 1 -2.220446049250313e-16 2.220446049250313e-16
vn 1 -2.220446049250313e-16 2.220446049250313e-16
vn 1 -2.220446049250313e-16 2.220446049250313e-16
vn -1.3622612515009198e-16 0.33035042881965637 0.9438583850860596
vn -1.3622612515009198e-16 0.33035042881965637 0.9438583850860596
vn -1.3622612515009198e-16 0.33035042881965637 0.9438583850860596
vn 2.8293118605824254e-16 0.33035042881965637 -0.9438583850860596
vn 2.8293118605824254e-16 0.33035042881965637 -0.9438583850860596
vn 2.8293118605824254e-16 0.33035042881965637 -0.9438583850860596
vn 2.8293118605824254e-16 0.33035042881965637 -0.9438583850860596
vn -1.3622612515009198e-16 0.33035042881965637 0.9438583850860596
vn -1 2.220446049250313e-16 -2.220446049250313e-16
vn -1 2.220446049250313e-16 -2.220446049250313e-16
vn -1 2.220446049250313e-16 -2.220446049250313e-16
vn -1.2246468525851679e-16 -2.220446049250313e-16 -1
vn -1.2246468525851679e-16 -2.220446049250313e-16 -1
vn -1.2246468525851679e-16 -2.220446049250313e-16 -1
vn 0.9438583850860596 0.33035042881965637 -1.88941842662284e-16
vn 0.9438583850860596 0.33035042881965637 -1.88941842662284e-16
vn 0.9438583850860596 0.33035042881965637 -1.88941842662284e-16
vn -0.9438583850860596 0.33035042881965637 4.2236788371578354e-17
vn -0.9438583850860596 0.33035042881965637 4.2236788371578354e-17
vn -0.9438583850860596 0.33035042881965637 4.2236788371578354e-17
vn 2.8293118605824254e-16 0.33035042881965637 -0.9438583850860596
vn -1 2.220446049250313e-16 -2.220446049250313e-16
vn -1 2.220446049250313e-16 -2.220446049250313e-16
vn -1 2.220446049250313e-16 -2.220446049250313e-16
vn -1.3622612515009198e-16 0.33035042881965637 0.9438583850860596
vn -0.9438583850860596 0.33035042881965637 4.2236788371578354e-17
vn 1.2246468525851679e-16 2.220446049250313e-16 1
vn 1.2246468525851679e-16 2.220446049250313e-16 1
vn 1.2246468525851679e-16 2.220446049250313e-16 1
vn 0.9438583850860596 0.33035042881965637 -1.88941842662284e-16
vn 0.6123802065849304 0.7070978283882141 -0.35355788469314575
vn 0.500006377696991 0.7070977687835693 -0.500006377696991
vn 0.500006377696991 0.7070977687835693 -0.500006377696991
vn 0.35355788469314575 0.7070978283882141 -0.6123802065849304
vn 0.35355788469314575 0.7070978283882141 -0.6123802065849304
vn 0.18301503360271454 0.7070978283882141 -0.6830213665962219
vn 1.2989505679517852e-16 0.7070978283882141 -0.7071157693862915
vn 1.2989505679517852e-16 0.7070978283882141 -0.7071157693862915
vn 0.18301509320735931 0.7070978283882141 -0.6830213665962219
vn -0.18301503360271454 0.7070978283882141 -0.6830213665962219
vn -0.18301503360271454 0.7070978283882141 -0.6830213665962219
vn -0.35355788469314575 0.7070978283882141 -0.6123802065849304
vn -0.353557825088501 0.7070978283882141 -0.6123802065849304
vn 0.7071157693862915 0.7070978283882141 2.195777795158113e-21
vn 0.6830213665962219 0.7070978283882141 -0.18301503360271454
vn 0.6830213665962219 0.7070978283882141 -0.18301503360271454
vn 0.7071157693862915 0.7070978283882141 2.195777795158113e-21
vn 0.6830213665962219 0.7070978283882141 0.18301503360271454
vn 0.6123802065849304 0.7070978283882141 -0.35355785489082336
vn 0.6830213665962219 0.7070978283882141 0.18301507830619812
vn 0.6123802065849304 0.7070978283882141 0.35355788469314575
vn 0.6123802065849304 0.7070978283882141 0.35355788469314575
vn 0.500006377696991 0.7070977687835693 0.500006377696991
vn 0.500006377696991 0.7070977687835693 0.500006377696991
vn 0.500006377696991 0.7070977687835693 0.500006377696991
vn 0.35355788469314575 0.7070978283882141 0.6123802065849304
vn 0.35355785489082336 0.7070978283882141 0.6123802065849304
vn 0.18301503360271454 0.7070978283882141 0.6830213665962219
vn 0.18301503360271454 0.7070978283882141 0.6830213665962219
vn -4.3298352265059507e-17 0.7070978283882141 0.7071157693862915
vn -0.18301503360271454 0.7070978283882141 0.6830213665962219
vn -0.18301507830619812 0.7070978283882141 0.6830213665962219
vn -0.35355788469314575 0.7070978283882141 0.6123802065849304
vn -4.3298352265059507e-17 0.7070978283882141 0.7071157693862915
vn 0.3517441749572754 0.7072291374206543 -0.6132723689079285
vn 0.18301503360271454 0.7070978283882141 -0.6830213665962219
vn -0.18531595170497894 0.7072553634643555 -0.6822373867034912
vn -0.35355788469314575 0.7070978283882141 -0.6123802065849304
vn -0.500006377696991 0.7070977687835693 -0.500006377696991
vn 0.6123802065849304 0.7070978283882141 -0.35355788469314575
vn 0.6823332905769348 0.7072363495826721 -0.18503506481647491
vn 0.6830213665962219 0.7070978283882141 0.18301503360271454
vn 0.613019585609436 0.7071921825408936 0.35225874185562134
vn 0.500006377696991 0.7070977687835693 0.500006377696991
vn 0.35355788469314575 0.7070978283882141 0.6123802065849304
vn 0.18503506481647491 0.7072363495826721 0.6823332905769348
vn -0.18301503360271454 0.7070978283882141 0.6830213665962219
vn -0.35225874185562134 0.7071921825408936 0.613019585609436
vn -0.35355788469314575 0.7070978283882141 0.6123802065849304
vn -0.500006377696991 0.7070977687835693 -0.500006377696991
vn -0.500006377696991 0.7070977687835693 -0.500006377696991
vn -0.6123802065849304 0.7070978283882141 -0.35355788469314575
vn -0.6123802065849304 0.7070978283882141 -0.35355788469314575
vn -0.6830213665962219 0.7070978283882141 -0.18301503360271454
vn -0.6830213665962219 0.7070978283882141 -0.18301509320735931
vn -0.6830213665962219 0.7070978283882141 0.18301503360271454
vn -0.6123802065849304 0.7070978283882141 0.35355788469314575
vn -0.6123802065849304 0.7070978283882141 0.353557825088501
vn -0.7071157693862915 0.7070978283882141 -2.597879165986501e-16
vn -0.7071157693862915 0.7070978283882141 -2.597879165986501e-16
vn -0.7071157693862915 0.7070978283882141 -8.659450753841207e-17
vn -0.6830213665962219 0.7070978283882141 0.18301503360271454
vn -0.500006377696991 0.7070977687835693 0.500006377696991
vn -0.500006377696991 0.7070977687835693 0.500006377696991
vn -0.500006377696991 0.7070977687835693 -0.500006377696991
vn -0.6132723689079285 0.7072291374206543 -0.3517441749572754
vn -0.6830213665962219 0.7070978283882141 -0.18301503360271454
vn -0.6123802065849304 0.7070978283882141 0.35355788469314575
vn -0.6822373867034912 0.7072553634643555 0.18531595170497894
vn -0.7071157693862915 0.7070978283882141 -8.659450753841207e-17
vn 0.5000001192092896 -1.0605751810385808e-16 -0.8660253286361694
vn 0.5 -1.0605753133874788e-16 -0.8660253882408142
vn 0.7071067690849304 -8.659561265171044e-17 -0.7071067690849304
vn 0.5 -1.0605753133874788e-16 -0.8660253882408142
vn 0.258819043636322 -1.1829180391364808e-16 -0.9659258127212524
vn 0.258819043636322 -1.1829180391364808e-16 -0.9659258127212524
vn 0.2588188946247101 -1.1829180391364808e-16 -0.9659258723258972
vn 1.8369701465288538e-16 -1.2246468525851679e-16 -1
vn 1.8369701465288538e-16 -1.2246468525851679e-16 -1
vn 1.8369701465288538e-16 -1.2246468525851679e-16 -1
vn -0.2588188946247101 -1.1829180391364808e-16 -0.9659258723258972
vn -0.258819043636322 -1.1829180391364808e-16 -0.9659258127212524
vn -0.258819043636322 -1.1829180391364808e-16 -0.9659258127212524
vn -0.5 -1.0605753133874788e-16 -0.8660253882408142
vn -0.5 -1.0605753133874788e-16 -0.8660253882408142
vn -0.5000001192092896 -1.0605751810385808e-16 -0.8660253286361694
vn -0.7071067690849304 -8.659561265171044e-17 -0.7071067690849304
vn -0.7071067690849304 -8.659561265171044e-17 -0.7071067690849304
vn 0.8660253882408142 -6.123234924670329e-17 -0.5000000596046448
vn 0.7071067690849304 -8.659561265171044e-17 -0.7071067690849304
vn 0.7071067690849304 -8.659561265171044e-17 -0.7071067690849304
vn 0.8660253882408142 -6.123234262925839e-17 -0.5
vn 0.8660253882408142 -6.123234262925839e-17 -0.5
vn 0.9659258127212524 -3.169619126193763e-17 -0.258819043636322
vn 0.9659258723258972 -3.169617471832538e-17 -0.2588188946247101
vn 0.9659258127212524 -3.169619126193763e-17 -0.258819043636322
vn 1 1.499759904157988e-32 1.2246468525851679e-16
vn 1 1.499759904157988e-32 1.2246468525851679e-16
vn 1 1.499759904157988e-32 1.2246468525851679e-16
vn 0.9659258723258972 3.169617471832538e-17 0.2588188946247101
vn 0.9659258127212524 3.169619126193763e-17 0.258819043636322
vn 0.9659258127212524 3.169619126193763e-17 0.258819043636322
vn 0.8660253882408142 6.123234262925839e-17 0.5
vn 0.8660253882408142 6.123234924670329e-17 0.5000000596046448
vn 0.8660253882408142 6.123234262925839e-17 0.5
vn 0.7071067690849304 8.659561265171044e-17 0.7071067690849304
vn 0.7071067690849304 8.659561265171044e-17 0.7071067690849304
vn 0.5000000596046448 1.0605753133874788e-16 0.8660253882408142
vn 0.5 1.0605753133874788e-16 0.8660253882408142
vn 0.5 1.0605753133874788e-16 0.8660253882408142
vn 0.258819043636322 1.1829180391364808e-16 0.9659258127212524
vn 0.2588188946247101 1.1829180391364808e-16 0.9659258723258972
vn 0.258819043636322 1.1829180391364808e-16 0.9659258127212524
vn -6.123234262925839e-17 1.2246468525851679e-16 1
vn -6.123234262925839e-17 1.2246468525851679e-16 1
vn -6.123234262925839e-17 1.2246468525851679e-16 1
vn -0.2588188946247101 1.1829180391364808e-16 0.9659258723258972
vn -0.258819043636322 1.1829180391364808e-16 0.9659258127212524
vn -0.258819043636322 1.1829180391364808e-16 0.9659258127212524
vn -0.5 1.0605753133874788e-16 0.8660253882408142
vn -0.5000000596046448 1.0605753133874788e-16 0.8660253882408142
vn -0.5 1.0605753133874788e-16 0.8660253882408142
vn -0.7071067690849304 8.659561265171044e-17 0.7071067690849304
vn 0.7071067690849304 -8.659561265171044e-17 -0.7071067690849304
vn 1.8369701465288538e-16 -1.2246468525851679e-16 -1
vn 1 1.499759904157988e-32 1.2246468525851679e-16
vn 0.7071067690849304 8.659561265171044e-17 0.7071067690849304
vn -6.123234262925839e-17 1.2246468525851679e-16 1
vn -0.7071067690849304 8.659561265171044e-17 0.7071067690849304
vn -0.8660253286361694 -6.123235586414819e-17 -0.5000001192092896
vn -0.8660253882408142 -6.123234262925839e-17 -0.5
vn -0.8660253882408142 -6.123234262925839e-17 -0.5
vn -0.9659258127212524 -3.169619126193763e-17 -0.258819043636322
vn -0.9659258127212524 -3.169619126193763e-17 -0.258819043636322
vn -0.9659258723258972 -3.169617140960293e-17 -0.2588188946247101
vn -1 -2.999519808315976e-32 -2.4492937051703357e-16
vn -1 -2.999519808315976e-32 -2.4492937051703357e-16
vn -1 0 0
vn -0.9659258723258972 3.169617140960293e-17 0.2588188946247101
vn -0.9659258127212524 3.169619126193763e-17 0.258819043636322
vn -0.9659258127212524 3.169619126193763e-17 0.258819043636322
vn -0.8660253286361694 6.123235586414819e-17 0.5000001192092896
vn -0.8660253882408142 6.123234262925839e-17 0.5
vn -0.8660253882408142 6.123234262925839e-17 0.5
vn -0.7071067690849304 8.659561265171044e-17 0.7071067690849304
vn -0.7071067690849304 8.659561265171044e-17 0.7071067690849304
vn -1 0 0
vn 0.500006377696991 0.7070977687835693 -0.500006377696991
vn 0.6123802065849304 0.7070978283882141 -0.35355788469314575
vn 0.500006377696991 0.7070977687835693 -0.500006377696991
vn 0.35355788469314575 0.7070978283882141 -0.6123802065849304
vn 0.35355788469314575 0.7070978283882141 -0.6123802065849304
vn 0.6830213665962219 0.7070978283882141 -0.18301503360271454
vn 0.7071157693862915 0.7070978283882141 2.195777795158113e-21
vn 0.6830213665962219 0.7070978283882141 -0.18301503360271454
vn 0.7071157693862915 0.7070978283882141 2.195777795158113e-21
vn 0.6830213665962219 0.7070978283882141 0.18301503360271454
vn 0.6123802065849304 0.7070978283882141 -0.353557825088501
vn 0.6830213665962219 0.7070978283882141 0.18301509320735931
vn 0.6123802065849304 0.7070978283882141 0.35355788469314575
vn 0.6123802065849304 0.7070978283882141 0.35355788469314575
vn 0.500006377696991 0.7070977687835693 0.500006377696991
vn 0.500006377696991 0.7070977687835693 0.500006377696991
vn 0.35355788469314575 0.7070978283882141 0.6123802065849304
vn 0.500006377696991 0.7070977687835693 0.500006377696991
vn 0.6123802065849304 0.7070978283882141 -0.35355788469314575
vn 0.6822373867034912 0.7072553634643555 -0.18531595170497894
vn 0.6830213665962219 0.7070978283882141 0.18301503360271454
vn 0.6132723689079285 0.7072291374206543 0.3517441749572754
vn 0.500006377696991 0.7070977687835693 0.500006377696991
vn 1.2989505679517852e-16 0.7070978283882141 -0.7071157693862915
vn 0.18301503360271454 0.7070978283882141 -0.6830213665962219
vn 1.2989505679517852e-16 0.7070978283882141 -0.7071157693862915
vn 0.18301507830619812 0.7070978283882141 -0.6830213665962219
vn -0.18301503360271454 0.7070978283882141 -0.6830213665962219
vn -0.18301503360271454 0.7070978283882141 -0.6830213665962219
vn -0.35355785489082336 0.7070978283882141 -0.6123802065849304
vn -0.35355788469314575 0.7070978283882141 -0.6123802065849304
vn -0.500006377696991 0.7070977687835693 -0.500006377696991
vn -0.500006377696991 0.7070977687835693 -0.500006377696991
vn -0.6123802065849304 0.7070978283882141 -0.35355788469314575
vn -0.500006377696991 0.7070977687835693 -0.500006377696991
vn -0.6123802065849304 0.7070978283882141 -0.35355788469314575
vn -0.6830213665962219 0.7070978283882141 -0.18301507830619812
vn -0.6830213665962219 0.7070978283882141 -0.18301503360271454
vn -0.6123802065849304 0.7070978283882141 0.35355785489082336
vn -0.6830213665962219 0.7070978283882141 0.18301503360271454
vn -0.6123802065849304 0.7070978283882141 0.35355788469314575
vn -0.7071157693862915 0.7070978283882141 -2.597879165986501e-16
vn -0.7071157693862915 0.7070978283882141 -2.597879165986501e-16
vn -0.6830213665962219 0.7070978283882141 0.18301503360271454
vn -0.7071157693862915 0.7070978283882141 -8.659450753841207e-17
vn 0.353557825088501 0.7070978283882141 0.6123802065849304
vn 0.18301503360271454 0.7070978283882141 0.6830213665962219
vn 0.18301503360271454 0.7070978283882141 0.6830213665962219
vn -4.3298352265059507e-17 0.7070978283882141 0.7071157693862915
vn -0.18301509320735931 0.7070978283882141 0.6830213665962219
vn -0.35355788469314575 0.7070978283882141 0.6123802065849304
vn -0.18301503360271454 0.7070978283882141 0.6830213665962219
vn -4.3298352265059507e-17 0.7070978283882141 0.7071157693862915
vn -0.35355788469314575 0.7070978283882141 0.6123802065849304
vn -0.500006377696991 0.7070977687835693 0.500006377696991
vn -0.500006377696991 0.7070977687835693 0.500006377696991
vn 0.35225874185562134 0.7071921825408936 -0.613019585609436
vn 0.18301503360271454 0.7070978283882141 -0.6830213665962219
vn -0.18503506481647491 0.7072363495826721 -0.6823332905769348
vn -0.35355788469314575 0.7070978283882141 -0.6123802065849304
vn -0.500006377696991 0.7070977687835693 -0.500006377696991
vn -0.613019585609436 0.7071921825408936 -0.35225874185562134
vn -0.6830213665962219 0.7070978283882141 -0.18301503360271454
vn -0.6123802065849304 0.7070978283882141 0.35355788469314575
vn -0.7071157693862915 0.7070978283882141 -8.659450753841207e-17
vn -0.6823332905769348 0.7072363495826721 0.18503506481647491
vn 0.35355788469314575 0.7070978283882141 0.6123802065849304
vn 0.18531595170497894 0.7072553634643555 0.6822373867034912
vn -0.18301503360271454 0.7070978283882141 0.6830213665962219
vn -0.3517441749572754 0.7072291374206543 0.6132723689079285
vn 0.9659258127212524 -3.169619126193763e-17 -0.258819043636322
vn 0.8660253882408142 -6.123234262925839e-17 -0.5
vn 0.8660253882408142 -6.123234262925839e-17 -0.5
vn 0.7071067690849304 -8.659561265171044e-17 -0.7071067690849304
vn 0.7071067690849304 -8.659561265171044e-17 -0.7071067690849304
vn 0.8660253286361694 -6.123235586414819e-17 -0.5000001192092896
vn 0.9659258723258972 -3.169617140960293e-17 -0.2588188946247101
vn 0.9659258127212524 -3.169619126193763e-17 -0.258819043636322
vn 1 1.499759904157988e-32 1.2246468525851679e-16
vn 1 1.499759904157988e-32 1.2246468525851679e-16
vn 1 1.499759904157988e-32 1.2246468525851679e-16
vn 0.9659258723258972 3.169617140960293e-17 0.2588188946247101
vn 0.9659258127212524 3.169619126193763e-17 0.258819043636322
vn 0.9659258127212524 3.169619126193763e-17 0.258819043636322
vn 0.8660253882408142 6.123234262925839e-17 0.5
vn 0.8660253286361694 6.123235586414819e-17 0.5000001192092896
vn 0.8660253882408142 6.123234262925839e-17 0.5
vn 0.7071067690849304 8.659561265171044e-17 0.7071067690849304
vn 1 1.499759904157988e-32 1.2246468525851679e-16
vn 0.7071067690849304 8.659561265171044e-17 0.7071067690849304
vn 0.7071067690849304 -8.659561265171044e-17 -0.7071067690849304
vn 0.5000000596046448 -1.0605753133874788e-16 -0.8660253882408142
vn 0.5 -1.0605753133874788e-16 -0.8660253882408142
vn 0.5 -1.0605753133874788e-16 -0.8660253882408142
vn 0.258819043636322 -1.1829180391364808e-16 -0.9659258127212524
vn 0.258819043636322 -1.1829180391364808e-16 -0.9659258127212524
vn 0.2588188946247101 -1.1829180391364808e-16 -0.9659258723258972
vn 1.8369701465288538e-16 -1.2246468525851679e-16 -1
vn 1.8369701465288538e-16 -1.2246468525851679e-16 -1
vn 1.8369701465288538e-16 -1.2246468525851679e-16 -1
vn -0.2588188946247101 -1.1829180391364808e-16 -0.9659258723258972
vn -0.258819043636322 -1.1829180391364808e-16 -0.9659258127212524
vn -0.258819043636322 -1.1829180391364808e-16 -0.9659258127212524
vn -0.5 -1.0605753133874788e-16 -0.8660253882408142
vn -0.5 -1.0605753133874788e-16 -0.8660253882408142
vn -0.5000000596046448 -1.0605753133874788e-16 -0.8660253882408142
vn -0.7071067690849304 -8.659561265171044e-17 -0.7071067690849304
vn -0.7071067690849304 -8.659561265171044e-17 -0.7071067690849304
vn -0.8660253882408142 -6.123234924670329e-17 -0.5000000596046448
vn -0.8660253882408142 -6.123234262925839e-17 -0.5
vn -0.8660253882408142 -6.123234262925839e-17 -0.5
vn -0.9659258127212524 -3.169619126193763e-17 -0.258819043636322
vn -0.9659258127212524 -3.169619126193763e-17 -0.258819043636322
vn -0.9659258723258972 -3.169617471832538e-17 -0.2588188946247101
vn -1 -2.999519808315976e-32 -2.4492937051703357e-16
vn -1 -2.999519808315976e-32 -2.4492937051703357e-16
vn -1 0 0
vn -0.9659258723258972 3.169617471832538e-17 0.2588188946247101
vn -0.9659258127212524 3.169619126193763e-17 0.258819043636322
vn -0.9659258127212524 3.169619126193763e-17 0.258819043636322
vn -0.8660253882408142 6.123234262925839e-17 0.5
vn -0.8660253882408142 6.123234262925839e-17 0.5
vn -0.8660253882408142 6.123234924670329e-17 0.5000000596046448
vn -0.7071067690849304 8.659561265171044e-17 0.7071067690849304
vn -0.7071067690849304 8.659561265171044e-17 0.7071067690849304
vn 0.5000001192092896 1.0605751810385808e-16 0.8660253286361694
vn 0.5 1.0605753133874788e-16 0.8660253882408142
vn 0.5 1.0605753133874788e-16 0.8660253882408142
vn 0.258819043636322 1.1829180391364808e-16 0.9659258127212524
vn 0.2588188946247101 1.1829180391364808e-16 0.9659258723258972
vn 0.258819043636322 1.1829180391364808e-16 0.9659258127212524
vn -6.123234262925839e-17 1.2246468525851679e-16 1
vn -6.123234262925839e-17 1.2246468525851679e-16 1
vn -6.123234262925839e-17 1.2246468525851679e-16 1
vn -0.2588188946247101 1.1829180391364808e-16 0.9659258723258972
vn -0.258819043636322 1.1829180391364808e-16 0.9659258127212524
vn -0.258819043636322 1.1829180391364808e-16 0.9659258127212524
vn -0.5 1.0605753133874788e-16 0.8660253882408142
vn -0.5000001192092896 1.0605751810385808e-16 0.8660253286361694
vn -0.5 1.0605753133874788e-16 0.8660253882408142
vn -0.7071067690849304 8.659561265171044e-17 0.7071067690849304
vn 0.7071067690849304 -8.659561265171044e-17 -0.7071067690849304
vn 1.8369701465288538e-16 -1.2246468525851679e-16 -1
vn -0.7071067690849304 -8.659561265171044e-17 -0.7071067690849304
vn -1 0 0
vn -6.123234262925839e-17 1.2246468525851679e-16 1
vn -0.7071067690849304 8.659561265171044e-17 0.7071067690849304
vt 0 0
vt 0.3400000035762787 0.30000001192092896
vt 0.3799999952316284 0.2569795250892639
vt 0.24702048301696777 0.3400000035762787
vt 0.29697951674461365 0.3400000035762787
vt 0.6754637360572815 0.10946881026029587
vt 0.7004839181900024 0.07686186581850052
vt 0.733090877532959 0.05184166133403778
vt 0.6200000047683716 0.20702046155929565
vt 0.6597353219985962 0.14744043350219727
vt 0.3799999952316284 0.20702046155929565
vt 0.24702048301696777 0.6600000262260437
vt 0.07686186581850052 0.7004839181900024
vt 0.10946881026029587 0.6754637360572815
vt 0.05184166133403778 0.733090877532959
vt 0.14744043350219727 0.6597353219985962
vt 0.18818898499011993 0.6543707251548767
vt 0.2289375215768814 0.6597353219985962
vt 0.6600000262260437 0.30000001192092896
vt 0.3400000035762787 0.699999988079071
vt 0.7710624933242798 0.03611331805586815
vt 1 0
vt 0.6543707251548767 0.18818898499011993
vt 0.6597353219985962 0.2289375215768814
vt 0.6200000047683716 0.2569795250892639
vt 0.8118110299110413 0.0307486429810524
vt 0.8525595664978027 0.03611331805586815
vt 0.8905311822891235 0.05184166133403778
vt 0.9231381416320801 0.07686186581850052
vt 0.948158323764801 0.10946881026029587
vt 0.9638866782188416 0.14744043350219727
vt 0.9692513346672058 0.18818898499011993
vt 0.9638866782188416 0.2289375215768814
vt 0 0
vt 0 1
vt 1 1
vt 0.6754637360572815 0.2669091522693634
vt 0.7004839181900024 0.29951611161231995
vt 0.703020453453064 0.3400000035762787
vt 0.733090877532959 0.3245362937450409
vt 0.7529795169830322 0.3400000035762787
vt 0.6600000262260437 0.699999988079071
vt 0.7710624933242798 0.3402646481990814
vt 1 1
vt 0.948158323764801 0.2669091522693634
vt 0 1
vt 1 1
vt 0 0
vt 1 0
vt 0 1
vt 0.7505655288696289 0.8730564713478088
vt 0.7368009090423584 0.8551180958747864
vt 0.7281481623649597 0.8342283964157104
vt 0.7251968383789062 0.8118110299110413
vt 0.7281481623649597 0.7893936038017273
vt 0.7368009090423584 0.7685039043426514
vt 0.7505655288696289 0.7505655288696289
vt 0 0
vt 0 1
vt 1 1
vt 0.14488188922405243 0.2631990611553192
vt 0.12694351375102997 0.2494344413280487
vt 0.16577157378196716 0.2718518376350403
vt 0.18818898499011993 0.27480316162109375
vt 0.2106063812971115 0.2718518376350403
vt 0.23149606585502625 0.2631990611553192
vt 1 1
vt 0.7685039043426514 0.8868210911750793
vt 0.7893936038017273 0.8954738974571228
vt 0.8118110299110413 0.8984252214431763
vt 0.8342283964157104 0.8954738974571228
vt 0.8551180958747864 0.8868210911750793
vt 0.8730564713478088 0.8730564713478088
vt 0.8868210911750793 0.8551180958747864
vt 0.8954738974571228 0.8342283964157104
vt 0.8984252214431763 0.8118110299110413
vt 0.8954738974571228 0.7893936038017273
vt 0.8868210911750793 0.7685039043426514
vt 0.7685039043426514 0.7368009090423584
vt 0.2494344413280487 0.2494344413280487
vt 1 0
vt 0.8730564713478088 0.7505655288696289
vt 0.03611331805586815 0.7710624933242798
vt 0 1
vt 0.2669091522693634 0.6754637360572815
vt 0.29697951674461365 0.6600000262260437
vt 0.29951611161231995 0.7004839181900024
vt 0.3245362937450409 0.733090877532959
vt 0.3799999952316284 0.7430204749107361
vt 0.3402646481990814 0.7710624933242798
vt 0.6200000047683716 0.7430204749107361
vt 1 0
vt 0.0307486429810524 0.8118110299110413
vt 0.03611331805586815 0.8525595664978027
vt 0.05184166133403778 0.8905311822891235
vt 0.07686186581850052 0.9231381416320801
vt 0.10946881026029587 0.948158323764801
vt 0.14744043350219727 0.9638866782188416
vt 0.18818898499011993 0.9692513346672058
vt 0.2289375215768814 0.9638866782188416
vt 0.3799999952316284 0.7929795384407043
vt 0.3456293046474457 0.8118110299110413
vt 0.3402646481990814 0.8525595664978027
vt 0.2669091522693634 0.948158323764801
vt 0 1
vt 1 1
vt 0 0
vt 0.703020453453064 0.6600000262260437
vt 0.8118110299110413 0.3456293046474457
vt 0.8525595664978027 0.3402646481990814
vt 0.8905311822891235 0.3245362937450409
vt 0.9231381416320801 0.29951611161231995
vt 0.7529795169830322 0.6600000262260437
vt 0.6200000047683716 0.7929795384407043
vt 0.3245362937450409 0.8905311822891235
vt 0.29951611161231995 0.9231381416320801
vt 0.11317889392375946 0.23149606585502625
vt 0 0
vt 0.10452611744403839 0.2106063812971115
vt 0.10157480090856552 0.18818898499011993
vt 0.10452611744403839 0.16577157378196716
vt 0.11317889392375946 0.14488188922405243
vt 0.12694351375102997 0.12694351375102997
vt 0.14488188922405243 0.11317889392375946
vt 0.16577157378196716 0.10452611744403839
vt 0.18818898499011993 0.10157480090856552
vt 0.2106063812971115 0.10452611744403839
vt 0.23149606585502625 0.11317889392375946
vt 0.2494344413280487 0.12694351375102997
vt 1 0
vt 0.7893936038017273 0.7281481623649597
vt 0.8118110299110413 0.7251968383789062
vt 0.8342283964157104 0.7281481623649597
vt 0.8551180958747864 0.7368009090423584
vt 1 0
vt 0.2631990611553192 0.23149606585502625
vt 0.2718518376350403 0.2106063812971115
vt 0.27480316162109375 0.18818898499011993
vt 0.2718518376350403 0.16577157378196716
vt 0.2631990611553192 0.14488188922405243
vt 9.313225746154785e-9 0
vt 1 0
vt 9.313225746154785e-9 1
vt 0 9.313225746154785e-9
vt 1 1
vt 0 1
vt 0 1
vt 0 0
vt 1 1
vt 1 1
vt 0 1
vt 0 0
vt 1 1
vt 1 9.313225746154785e-9
vt 9.313225746154785e-9 1
vt 1 0
vt 1 1
vt 9.313225746154785e-9 0
vt 1 0
vt 1 0
vt 0.05393701419234276 0.4496031701564789
vt 0.9460629820823669 0.4496031701564789
vt 0.5 0
vt 0.10787402838468552 0
vt 1 0
vt 0.10787399113178253 1
vt 0 0
vt 0.8921260237693787 0
vt 0 1
vt 0.9460629820823669 0.4496031701564789
vt 0.5 0
vt 0.05393701419234276 0.4496031701564789
vt 0.8921260237693787 0
vt 0 1
vt 0 0
vt 0.10787402838468552 0
vt 1 0
vt 1 1
vt 0.8921259641647339 1
vt 0.9460629820823669 0.5503968000411987
vt 0.5 1
vt 0.05393701419234276 0.5503968000411987
vt 1 1
vt 0.9460629820823669 0.4496031701564789
vt 0.5 0
vt 0.05393701419234276 0.4496031701564789
vt 0.10787402838468552 0
vt 1 0
vt 0.10787402838468552 1
vt 0.8921260237693787 0
vt 0 1
vt 0 0
vt 0.8921260237693787 1
vt 0.10787399113178253 1
vt 0.053936995565891266 0.5503968000411987
vt 0.9460629820823669 0.5503968000411987
vt 0.5 1
vt 0.05393701419234276 0.4496031701564789
vt 0.9460629820823669 0.4496031701564789
vt 0.5 0
vt 0.10787402838468552 0
vt 1 0
vt 0.10787402838468552 1
vt 0.8921259641647339 0
vt 0 1
vt 0 0
vt 0.8921260237693787 1
vt 0.053936995565891266 0.5503968000411987
vt 0.9460629820823669 0.5503968000411987
vt 0.5 1
vt 1 1
vt 0.8921259641647339 1
vt 0.9460629820823669 0.5503968000411987
vt 0.5 1
vt 0.05393701419234276 0.5503968000411987
vt 1 1
vt 0.5833333134651184 0.9997460246086121
vt 0.625 0.9997460246086121
vt 0.625 0.5499885082244873
vt 0.6666666865348816 0.9997460246086121
vt 0.6666666865348816 0.5499886274337769
vt 0.7083333134651184 0.9997460246086121
vt 0.75 0.9997460246086121
vt 0.75 0.5499886274337769
vt 0.7083333134651184 0.5499885678291321
vt 0.7916666865348816 0.9997460246086121
vt 0.7916666865348816 0.5499885678291321
vt 0.8333333134651184 0.9997460246086121
vt 0.8333333134651184 0.5499886870384216
vt 0.5 0.9997460246086121
vt 0.5416666865348816 0.9997460246086121
vt 0.5416666865348816 0.5499886274337769
vt 0.5 0.5499885082244873
vt 0.4583333432674408 0.9997460246086121
vt 0.5833333134651184 0.5499886274337769
vt 0.4583333432674408 0.5499886274337769
vt 0.4166666567325592 0.9997460246086121
vt 0.4166666567325592 0.5499886274337769
vt 0.375 0.9997460246086121
vt 0.375 0.9997460246086121
vt 0.375 0.5499885082244873
vt 0.3333333432674408 0.9997460246086121
vt 0.3333333432674408 0.5499886274337769
vt 0.2916666567325592 0.9997460246086121
vt 0.2916666567325592 0.5499886274337769
vt 0.25 0.9997460246086121
vt 0.2083333283662796 0.9997460246086121
vt 0.2083333134651184 0.5499886274337769
vt 0.1666666716337204 0.9997460246086121
vt 0.25 0.5499885082244873
vt 0.6671257615089417 0.5499886870384216
vt 0.7083333134651184 0.5499885678291321
vt 0.7922187447547913 0.5499885678291321
vt 0.8333333134651184 0.5499886274337769
vt 0.875 0.5499885082244873
vt 0.5833333134651184 0.5499886274337769
vt 0.5421513915061951 0.5499886274337769
vt 0.4583333432674408 0.5499886274337769
vt 0.4169955551624298 0.5499886274337769
vt 0.375 0.5499885082244873
vt 0.3333333432674408 0.5499886274337769
vt 0.2921513319015503 0.5499886274337769
vt 0.2083333283662796 0.5499886274337769
vt 0.1669955551624298 0.5499886274337769
vt 0.1666666716337204 0.5499886274337769
vt 0.875 0.9997460246086121
vt 0.875 0.9997460246086121
vt 0.9166666865348816 0.9997460246086121
vt 0.9166666865348816 0.5499886274337769
vt 0.9583333134651184 0.9997460246086121
vt 0.9583333134651184 0.5499885678291321
vt 0.0416666679084301 0.9997460246086121
vt 0.0833333358168602 0.9997460246086121
vt 0.083333320915699 0.5499886870384216
vt 1 0.9997460246086121
vt 1 0.5499886274337769
vt 0 0.9997460246086121
vt 0.0416666679084301 0.5499885678291321
vt 0.125 0.9997460246086121
vt 0.125 0.5499885082244873
vt 0.875 0.5499885082244873
vt 0.9171257615089417 0.5499886870384216
vt 0.9583333134651184 0.5499885678291321
vt 0.0833333358168602 0.5499886274337769
vt 0.04221873730421066 0.5499885678291321
vt 0 0.5499886274337769
vt 0.6666666865348816 0.5572967529296875
vt 0.6666666865348816 0.00024991651298478246
vt 0.625 0.557296633720398
vt 0.6666666865348816 0.5572968125343323
vt 0.7083333134651184 0.5572966933250427
vt 0.7083333134651184 0.00024991651298478246
vt 0.7083333134651184 0.5572966933250427
vt 0.75 0.5572967529296875
vt 0.75 0.00024991651298478246
vt 0.75 0.5572967529296875
vt 0.7916666865348816 0.5572966933250427
vt 0.7916666865348816 0.00024991651298478246
vt 0.7916666865348816 0.5572966933250427
vt 0.8333333134651184 0.5572968125343323
vt 0.8333333134651184 0.00024991651298478246
vt 0.8333333134651184 0.5572967529296875
vt 0.875 0.557296633720398
vt 0.875 0.00024991651298478246
vt 0.5833333134651184 0.5572967529296875
vt 0.625 0.557296633720398
vt 0.625 0.00024991651298478246
vt 0.5833333134651184 0.00024991651298478246
vt 0.5833333134651184 0.5572967529296875
vt 0.5416666865348816 0.5572967529296875
vt 0.5416666865348816 0.5572967529296875
vt 0.5416666865348816 0.00024991651298478246
vt 0.5 0.557296633720398
vt 0.5 0.557296633720398
vt 0.5 0.00024991651298478246
vt 0.4583333730697632 0.5572967529296875
vt 0.4583333432674408 0.00024991651298478246
vt 0.4583333432674408 0.5572967529296875
vt 0.4166666567325592 0.5572967529296875
vt 0.4166666269302368 0.5572967529296875
vt 0.4166666567325592 0.00024991651298478246
vt 0.375 0.557296633720398
vt 0.375 0.00024991651298478246
vt 0.3333333730697632 0.5572967529296875
vt 0.3333333432674408 0.00024991651298478246
vt 0.3333333432674408 0.5572967529296875
vt 0.2916666567325592 0.5572967529296875
vt 0.2916666269302368 0.5572967529296875
vt 0.2916666567325592 0.00024991651298478246
vt 0.25 0.557296633720398
vt 0.25 0.557296633720398
vt 0.25 0.00024991651298478246
vt 0.208333358168602 0.5572967529296875
vt 0.2083333283662796 0.00024991651298478246
vt 0.2083333283662796 0.5572967529296875
vt 0.1666666716337204 0.5572967529296875
vt 0.1666666567325592 0.5572967529296875
vt 0.1666666716337204 0.00024991651298478246
vt 0.125 0.557296633720398
vt 0.625 0.00024991651298478246
vt 0.75 0.00024991651298478246
vt 0.5 0.00024991651298478246
vt 0.375 0.00024991651298478246
vt 0.25 0.00024991651298478246
vt 0.125 0.00024991651298478246
vt 0.9166666865348816 0.5572967529296875
vt 0.9166666865348816 0.00024991651298478246
vt 0.9166666865348816 0.5572968125343323
vt 0.9583333134651184 0.5572966933250427
vt 0.9583333134651184 0.00024991651298478246
vt 0.9583333134651184 0.5572966933250427
vt 1 0.5572967529296875
vt 1 0.00024991651298478246
vt 0 0.5572967529296875
vt 0.04166664183139801 0.5572966933250427
vt 0.0416666679084301 0.00024991651298478246
vt 0.0416666679084301 0.5572966933250427
vt 0.08333335816860199 0.5572967529296875
vt 0.0833333358168602 0.00024991651298478246
vt 0.0833333358168602 0.5572968125343323
vt 0.125 0.557296633720398
vt 0.125 0.00024991651298478246
vt 0 0.00024991651298478246
vt 0.625 0.5499885082244873
vt 0.5833333134651184 0.9997460246086121
vt 0.625 0.9997460246086121
vt 0.6666666865348816 0.5499886274337769
vt 0.6666666865348816 0.9997460246086121
vt 0.5416666865348816 0.5499885678291321
vt 0.5 0.9997460246086121
vt 0.5416666865348816 0.9997460246086121
vt 0.5 0.5499886274337769
vt 0.4583333432674408 0.9997460246086121
vt 0.5833333134651184 0.5499886870384216
vt 0.4583333432674408 0.5499885678291321
vt 0.4166666567325592 0.9997460246086121
vt 0.4166666567325592 0.5499886274337769
vt 0.375 0.9997460246086121
vt 0.375 0.5499885082244873
vt 0.3333333432674408 0.9997460246086121
vt 0.375 0.9997460246086121
vt 0.5833333134651184 0.5499886274337769
vt 0.5422187447547913 0.5499885678291321
vt 0.4583333432674408 0.5499885678291321
vt 0.41712573170661926 0.5499886870384216
vt 0.375 0.5499885082244873
vt 0.75 0.5499885082244873
vt 0.7083333134651184 0.9997460246086121
vt 0.75 0.9997460246086121
vt 0.7083333134651184 0.5499886274337769
vt 0.7916666865348816 0.5499886274337769
vt 0.7916666865348816 0.9997460246086121
vt 0.8333333134651184 0.5499886274337769
vt 0.8333333134651184 0.9997460246086121
vt 0.875 0.5499885082244873
vt 0.875 0.9997460246086121
vt 0.9166666865348816 0.5499886274337769
vt 0.875 0.9997460246086121
vt 0.9166666865348816 0.9997460246086121
vt 0.9583333134651184 0.5499886274337769
vt 0.9583333134651184 0.9997460246086121
vt 0.0833333283662796 0.5499886274337769
vt 0.0416666679084301 0.9997460246086121
vt 0.0833333358168602 0.9997460246086121
vt 1 0.5499885082244873
vt 1 0.9997460246086121
vt 0.0416666679084301 0.5499886274337769
vt 0 0.9997460246086121
vt 0.3333333432674408 0.5499886870384216
vt 0.2916666567325592 0.9997460246086121
vt 0.2916666567325592 0.5499885678291321
vt 0.25 0.9997460246086121
vt 0.2083333134651184 0.5499885678291321
vt 0.1666666716337204 0.9997460246086121
vt 0.2083333283662796 0.9997460246086121
vt 0.25 0.5499886274337769
vt 0.1666666716337204 0.5499886274337769
vt 0.125 0.9997460246086121
vt 0.125 0.5499885082244873
vt 0.6669955849647522 0.5499886274337769
vt 0.7083333134651184 0.5499886274337769
vt 0.7921513915061951 0.5499886274337769
vt 0.8333333134651184 0.5499886274337769
vt 0.875 0.5499885082244873
vt 0.9169955849647522 0.5499886274337769
vt 0.9583333134651184 0.5499886274337769
vt 0.0833333358168602 0.5499886274337769
vt 0 0.5499885082244873
vt 0.04215134307742119 0.5499886274337769
vt 0.3333333432674408 0.5499886274337769
vt 0.29221871495246887 0.5499885678291321
vt 0.2083333283662796 0.5499885678291321
vt 0.16712574660778046 0.5499886870384216
vt 0.5416666865348816 0.5572966933250427
vt 0.5833333134651184 0.5572968125343323
vt 0.5833333134651184 0.00024991651298478246
vt 0.625 0.557296633720398
vt 0.625 0.00024991651298478246
vt 0.5833333134651184 0.5572967529296875
vt 0.5416666865348816 0.5572966933250427
vt 0.5416666865348816 0.00024991651298478246
vt 0.5 0.5572967529296875
vt 0.5 0.5572967529296875
vt 0.5 0.00024991651298478246
vt 0.4583333730697632 0.5572966933250427
vt 0.4583333432674408 0.00024991651298478246
vt 0.4583333432674408 0.5572966933250427
vt 0.4166666567325592 0.5572968125343323
vt 0.4166666269302368 0.5572967529296875
vt 0.4166666567325592 0.00024991651298478246
vt 0.375 0.557296633720398
vt 0.5 0.00024991651298478246
vt 0.375 0.00024991651298478246
vt 0.625 0.557296633720398
vt 0.6666666865348816 0.5572967529296875
vt 0.6666666865348816 0.00024991651298478246
vt 0.6666666865348816 0.5572967529296875
vt 0.7083333134651184 0.5572967529296875
vt 0.7083333134651184 0.00024991651298478246
vt 0.7083333134651184 0.5572967529296875
vt 0.75 0.557296633720398
vt 0.75 0.00024991651298478246
vt 0.75 0.557296633720398
vt 0.7916666865348816 0.5572967529296875
vt 0.7916666865348816 0.00024991651298478246
vt 0.7916666865348816 0.5572967529296875
vt 0.8333333134651184 0.5572967529296875
vt 0.8333333134651184 0.00024991651298478246
vt 0.8333333134651184 0.5572967529296875
vt 0.875 0.557296633720398
vt 0.875 0.00024991651298478246
vt 0.9166666865348816 0.5572967529296875
vt 0.9166666865348816 0.00024991651298478246
vt 0.9166666865348816 0.5572967529296875
vt 0.9583333134651184 0.5572967529296875
vt 0.9583333134651184 0.00024991651298478246
vt 0.9583333134651184 0.5572967529296875
vt 1 0.557296633720398
vt 1 0.00024991651298478246
vt 0 0.557296633720398
vt 0.04166664555668831 0.5572967529296875
vt 0.0416666679084301 0.00024991651298478246
vt 0.0416666679084301 0.5572967529296875
vt 0.0833333358168602 0.5572967529296875
vt 0.0833333358168602 0.00024991651298478246
vt 0.08333335071802139 0.5572967529296875
vt 0.125 0.557296633720398
vt 0.125 0.00024991651298478246
vt 0.3333333730697632 0.5572967529296875
vt 0.3333333432674408 0.00024991651298478246
vt 0.3333333432674408 0.5572968125343323
vt 0.2916666567325592 0.5572966933250427
vt 0.2916666269302368 0.5572966933250427
vt 0.2916666567325592 0.00024991651298478246
vt 0.25 0.5572967529296875
vt 0.25 0.5572967529296875
vt 0.25 0.00024991651298478246
vt 0.208333358168602 0.5572966933250427
vt 0.2083333283662796 0.00024991651298478246
vt 0.2083333283662796 0.5572966933250427
vt 0.1666666716337204 0.5572968125343323
vt 0.1666666567325592 0.5572967529296875
vt 0.1666666716337204 0.00024991651298478246
vt 0.125 0.557296633720398
vt 0.625 0.00024991651298478246
vt 0.75 0.00024991651298478246
vt 0.875 0.00024991651298478246
vt 0 0.00024991651298478246
vt 0.25 0.00024991651298478246
vt 0.125 0.00024991651298478246
f 3/3/3 2/2/2 1/1/1
f 5/5/5 4/4/4 1/1/1
f 2/2/2 5/5/5 1/1/1
f 7/7/7 6/6/6 1/1/1
f 8/8/8 7/7/7 1/1/1
f 10/10/10 9/9/9 1/1/1
f 6/6/6 10/10/10 1/1/1
f 11/11/11 3/3/3 1/1/1
f 9/9/9 11/11/11 1/1/1
f 4/4/4 12/12/12 1/1/1
f 14/14/14 13/13/13 1/1/1
f 13/13/13 15/15/15 1/1/1
f 16/16/16 14/14/14 1/1/1
f 17/17/17 16/16/16 1/1/1
f 18/18/18 17/17/17 1/1/1
f 12/12/12 18/18/18 1/1/1
f 3/3/3 19/19/19 2/2/2
f 20/20/20 5/5/5 2/2/2
f 21/21/21 8/8/8 1/1/1
f 22/22/22 21/21/21 1/1/1
f 10/10/10 23/23/23 9/9/9
f 23/23/23 24/24/24 9/9/9
f 24/24/24 25/25/25 9/9/9
f 21/21/21 22/22/22 26/26/26
f 22/22/22 27/27/27 26/26/26
f 22/22/22 28/28/28 27/27/27
f 22/22/22 29/29/29 28/28/28
f 30/30/30 29/29/29 22/22/22
f 31/31/31 30/30/30 22/22/22
f 32/32/32 31/31/31 22/22/22
f 33/33/33 32/32/32 22/22/22
f 36/36/36 35/35/35 34/34/34
f 25/25/25 19/19/19 3/3/3
f 37/37/37 25/25/25 24/24/24
f 37/37/37 19/19/19 25/25/25
f 38/38/38 19/19/19 37/37/37
f 38/38/38 39/39/39 19/19/19
f 40/40/40 39/39/39 38/38/38
f 40/40/40 41/41/41 39/39/39
f 39/39/39 42/42/42 19/19/19
f 43/43/43 41/41/41 40/40/40
f 44/44/44 33/33/33 22/22/22
f 44/44/44 45/45/45 33/33/33
f 48/48/48 47/47/47 46/46/46
f 49/49/49 36/36/36 34/34/34
f 52/52/52 51/51/51 50/50/50
f 53/53/53 52/52/52 50/50/50
f 54/54/54 53/53/53 50/50/50
f 55/55/55 54/54/54 50/50/50
f 56/56/56 55/55/55 50/50/50
f 57/57/57 56/56/56 50/50/50
f 60/60/60 59/59/59 58/58/58
f 62/62/62 61/61/61 50/50/50
f 61/61/61 63/63/63 50/50/50
f 63/63/63 64/64/64 50/50/50
f 64/64/64 65/65/65 50/50/50
f 65/65/65 66/66/66 50/50/50
f 66/66/66 57/57/57 50/50/50
f 68/68/68 67/67/67 50/50/50
f 51/51/51 68/68/68 50/50/50
f 69/69/69 67/67/67 68/68/68
f 70/70/70 67/67/67 69/69/69
f 71/71/71 67/67/67 70/70/70
f 72/72/72 67/67/67 71/71/71
f 73/73/73 67/67/67 72/72/72
f 73/73/73 74/74/74 67/67/67
f 74/74/74 75/75/75 67/67/67
f 75/75/75 76/76/76 67/67/67
f 76/76/76 77/77/77 67/67/67
f 77/77/77 78/78/78 67/67/67
f 80/80/80 79/79/79 57/57/57
f 78/78/78 81/81/81 67/67/67
f 81/81/81 78/78/78 82/82/82
f 15/15/15 83/83/83 1/1/1
f 83/83/83 84/84/84 1/1/1
f 85/85/85 18/18/18 12/12/12
f 20/20/20 86/86/86 5/5/5
f 86/86/86 85/85/85 12/12/12
f 87/87/87 85/85/85 86/86/86
f 20/20/20 87/87/87 86/86/86
f 88/88/88 87/87/87 20/20/20
f 89/89/89 88/88/88 20/20/20
f 90/90/90 88/88/88 89/89/89
f 91/91/91 89/89/89 20/20/20
f 92/92/92 60/60/60 58/58/58
f 83/83/83 93/93/93 84/84/84
f 93/93/93 94/94/94 84/84/84
f 94/94/94 95/95/95 84/84/84
f 95/95/95 96/96/96 84/84/84
f 96/96/96 97/97/97 84/84/84
f 97/97/97 98/98/98 84/84/84
f 98/98/98 99/99/99 84/84/84
f 99/99/99 100/100/100 84/84/84
f 101/101/101 90/90/90 89/89/89
f 102/102/102 90/90/90 101/101/101
f 103/103/103 102/102/102 101/101/101
f 100/100/100 44/44/44 84/84/84
f 100/100/100 104/104/104 44/44/44
f 107/107/107 106/106/106 105/105/105
f 108/108/108 42/42/42 39/39/39
f 42/42/42 91/91/91 20/20/20
f 43/43/43 44/44/44 41/41/41
f 109/109/109 44/44/44 43/43/43
f 110/110/110 44/44/44 109/109/109
f 111/111/111 44/44/44 110/110/110
f 45/45/45 44/44/44 112/112/112
f 44/44/44 111/111/111 112/112/112
f 44/44/44 113/113/113 41/41/41
f 114/114/114 44/44/44 101/101/101
f 44/44/44 114/114/114 91/91/91
f 115/115/115 103/103/103 44/44/44
f 44/44/44 103/103/103 101/101/101
f 104/104/104 116/116/116 44/44/44
f 116/116/116 115/115/115 44/44/44
f 44/44/44 42/42/42 108/108/108
f 113/113/113 44/44/44 108/108/108
f 42/42/42 44/44/44 91/91/91
f 117/117/117 62/62/62 50/50/50
f 118/118/118 117/117/117 50/50/50
f 66/66/66 80/80/80 57/57/57
f 119/119/119 117/117/117 118/118/118
f 120/120/120 119/119/119 118/118/118
f 121/121/121 120/120/120 118/118/118
f 122/122/122 121/121/121 118/118/118
f 123/123/123 122/122/122 118/118/118
f 124/124/124 123/123/123 118/118/118
f 125/125/125 124/124/124 118/118/118
f 126/126/126 125/125/125 118/118/118
f 127/127/127 126/126/126 118/118/118
f 128/128/128 127/127/127 118/118/118
f 129/129/129 128/128/128 81/81/81
f 81/81/81 128/128/128 118/118/118
f 130/130/130 47/47/47 48/48/48
f 80/80/80 81/81/81 79/79/79
f 81/81/81 131/131/131 79/79/79
f 81/81/81 132/132/132 131/131/131
f 81/81/81 133/133/133 132/132/132
f 81/81/81 134/134/134 133/133/133
f 134/134/134 81/81/81 82/82/82
f 135/135/135 106/106/106 107/107/107
f 80/80/80 136/136/136 81/81/81
f 136/136/136 137/137/137 81/81/81
f 137/137/137 138/138/138 81/81/81
f 138/138/138 139/139/139 81/81/81
f 139/139/139 140/140/140 81/81/81
f 140/140/140 129/129/129 81/81/81
f 143/143/143 142/142/142 141/141/141
f 146/146/146 145/145/145 144/144/144
f 149/149/149 148/148/148 147/147/147
f 150/150/150 142/142/142 143/143/143
f 153/153/153 152/152/152 151/151/151
f 145/145/145 154/154/154 144/144/144
f 157/157/157 156/156/156 155/155/155
f 156/156/156 158/158/158 155/155/155
f 149/149/149 159/159/159 148/148/148
f 160/160/160 152/152/152 153/153/153
f 163/163/163 162/162/162 161/161/161
f 166/166/166 165/165/165 164/164/164
f 169/169/169 168/168/168 167/167/167
f 172/172/172 171/171/171 170/170/170
f 175/175/175 174/174/174 173/173/173
f 178/178/178 177/177/177 176/176/176
f 169/169/169 179/179/179 168/168/168
f 182/182/182 181/181/181 180/180/180
f 166/166/166 183/183/183 165/165/165
f 186/186/186 185/185/185 184/184/184
f 189/189/189 188/188/188 187/187/187
f 192/192/192 191/191/191 190/190/190
f 174/174/174 193/193/193 173/173/173
f 194/194/194 178/178/178 176/176/176
f 197/197/197 196/196/196 195/195/195
f 200/200/200 199/199/199 198/198/198
f 203/203/203 202/202/202 201/201/201
f 206/206/206 205/205/205 204/204/204
f 191/191/191 207/207/207 190/190/190
f 210/210/210 209/209/209 208/208/208
f 189/189/189 211/211/211 188/188/188
f 205/205/205 212/212/212 204/204/204
f 215/215/215 214/214/214 213/213/213
f 203/203/203 216/216/216 202/202/202
f 219/219/219 218/218/218 217/217/217
f 218/218/218 221/221/221 220/220/220
f 224/224/224 223/223/223 222/222/222
f 225/225/225 222/222/222 220/220/220
f 227/227/227 226/226/226 223/223/223
f 229/229/229 228/228/228 226/226/226
f 232/232/232 231/231/231 230/230/230
f 234/234/234 233/233/233 230/230/230
f 231/231/231 235/235/235 217/217/217
f 237/237/237 236/236/236 234/234/234
f 239/239/239 238/238/238 237/237/237
f 242/242/242 241/241/241 240/240/240
f 244/244/244 243/243/243 242/242/242
f 246/246/246 245/245/245 244/244/244
f 249/249/249 248/248/248 247/247/247
f 247/247/247 250/250/250 246/246/246
f 219/219/219 221/221/221 218/218/218
f 221/221/221 251/251/251 220/220/220
f 251/251/251 225/225/225 220/220/220
f 225/225/225 252/252/252 222/222/222
f 252/252/252 224/224/224 222/222/222
f 224/224/224 227/227/227 223/223/223
f 227/227/227 253/253/253 226/226/226
f 253/253/253 229/229/229 226/226/226
f 228/228/228 229/229/229 254/254/254
f 255/255/255 228/228/228 254/254/254
f 235/235/235 256/256/256 217/217/217
f 257/257/257 235/235/235 231/231/231
f 232/232/232 257/257/257 231/231/231
f 233/233/233 232/232/232 230/230/230
f 256/256/256 219/219/219 217/217/217
f 258/258/258 233/233/233 234/234/234
f 236/236/236 258/258/258 234/234/234
f 259/259/259 236/236/236 237/237/237
f 238/238/238 259/259/259 237/237/237
f 260/260/260 238/238/238 239/239/239
f 261/261/261 241/241/241 242/242/242
f 243/243/243 261/261/261 242/242/242
f 262/262/262 243/243/243 244/244/244
f 245/245/245 262/262/262 244/244/244
f 250/250/250 245/245/245 246/246/246
f 263/263/263 250/250/250 247/247/247
f 248/248/248 263/263/263 247/247/247
f 249/249/249 264/264/264 248/248/248
f 264/264/264 249/249/249 265/265/265
f 266/266/266 228/228/228 255/255/255
f 269/269/269 268/268/268 267/267/267
f 271/271/271 270/270/270 268/268/268
f 274/274/274 273/273/273 272/272/272
f 276/276/276 275/275/275 270/270/270
f 278/278/278 272/272/272 277/277/277
f 249/249/249 279/279/279 265/265/265
f 279/279/279 273/273/273 280/280/280
f 269/269/269 267/267/267 281/281/281
f 269/269/269 282/282/282 268/268/268
f 282/282/282 271/271/271 268/268/268
f 271/271/271 283/283/283 270/270/270
f 283/283/283 276/276/276 270/270/270
f 273/273/273 284/284/284 280/280/280
f 278/278/278 285/285/285 272/272/272
f 286/286/286 278/278/278 277/277/277
f 285/285/285 274/274/274 272/272/272
f 274/274/274 284/284/284 273/273/273
f 265/265/265 279/279/279 280/280/280
f 289/289/289 288/288/288 287/287/287
f 288/288/288 290/290/290 287/287/287
f 292/292/292 291/291/291 290/290/290
f 291/291/291 292/292/292 293/293/293
f 295/295/295 294/294/294 293/293/293
f 298/298/298 297/297/297 296/296/296
f 298/298/298 299/299/299 297/297/297
f 301/301/301 300/300/300 299/299/299
f 300/300/300 301/301/301 302/302/302
f 304/304/304 303/303/303 302/302/302
f 307/307/307 306/306/306 305/305/305
f 309/309/309 308/308/308 305/305/305
f 310/310/310 308/308/308 309/309/309
f 312/312/312 310/310/310 311/311/311
f 313/313/313 312/312/312 311/311/311
f 316/316/316 315/315/315 314/314/314
f 318/318/318 317/317/317 316/316/316
f 319/319/319 317/317/317 318/318/318
f 321/321/321 319/319/319 320/320/320
f 322/322/322 321/321/321 320/320/320
f 324/324/324 323/323/323 322/322/322
f 326/326/326 325/325/325 324/324/324
f 327/327/327 325/325/325 326/326/326
f 329/329/329 327/327/327 328/328/328
f 330/330/330 329/329/329 328/328/328
f 333/333/333 332/332/332 331/331/331
f 335/335/335 334/334/334 333/333/333
f 336/336/336 334/334/334 335/335/335
f 338/338/338 336/336/336 337/337/337
f 338/338/338 337/337/337 339/339/339
f 340/340/340 288/288/288 289/289/289
f 288/288/288 292/292/292 290/290/290
f 292/292/292 295/295/295 293/293/293
f 341/341/341 298/298/298 296/296/296
f 298/298/298 301/301/301 299/299/299
f 301/301/301 304/304/304 302/302/302
f 308/308/308 307/307/307 305/305/305
f 312/312/312 308/308/308 310/310/310
f 342/342/342 312/312/312 313/313/313
f 317/317/317 315/315/315 316/316/316
f 321/321/321 317/317/317 319/319/319
f 343/343/343 321/321/321 322/322/322
f 325/325/325 323/323/323 324/324/324
f 329/329/329 325/325/325 327/327/327
f 344/344/344 329/329/329 330/330/330
f 334/334/334 332/332/332 333/333/333
f 338/338/338 334/334/334 336/336/336
f 345/345/345 338/338/338 339/339/339
f 347/347/347 346/346/346 303/303/303
f 347/347/347 348/348/348 346/346/346
f 350/350/350 349/349/349 348/348/348
f 349/349/349 350/350/350 351/351/351
f 353/353/353 352/352/352 351/351/351
f 356/356/356 355/355/355 354/354/354
f 356/356/356 357/357/357 355/355/355
f 360/360/360 359/359/359 358/358/358
f 358/358/358 362/362/362 361/361/361
f 359/359/359 360/360/360 357/357/357
f 304/304/304 347/347/347 303/303/303
f 347/347/347 350/350/350 348/348/348
f 350/350/350 353/353/353 351/351/351
f 363/363/363 356/356/356 354/354/354
f 356/356/356 359/359/359 357/357/357
f 359/359/359 362/362/362 358/358/358
f 366/366/366 365/365/365 364/364/364
f 368/368/368 366/366/366 367/367/367
f 371/371/371 370/370/370 369/369/369
f 370/370/370 373/373/373 372/372/372
f 365/365/365 371/371/371 374/374/374
f 373/373/373 376/376/376 375/375/375
f 376/376/376 378/378/378 377/377/377
f 381/381/381 380/380/380 379/379/379
f 367/367/367 366/366/366 364/364/364
f 365/365/365 374/374/374 382/382/382
f 374/374/374 371/371/371 383/383/383
f 370/370/370 372/372/372 369/369/369
f 383/383/383 371/371/371 369/369/369
f 365/365/365 382/382/382 364/364/364
f 373/373/373 384/384/384 372/372/372
f 373/373/373 375/375/375 384/384/384
f 376/376/376 385/385/385 375/375/375
f 385/385/385 376/376/376 377/377/377
f 378/378/378 386/386/386 377/377/377
f 389/389/389 388/388/388 387/387/387
f 388/388/388 368/368/368 390/390/390
f 392/392/392 389/389/389 391/391/391
f 394/394/394 392/392/392 393/393/393
f 396/396/396 394/394/394 395/395/395
f 399/399/399 398/398/398 397/397/397
f 401/401/401 399/399/399 400/400/400
f 404/404/404 403/403/403 402/402/402
f 406/406/406 401/401/401 405/405/405
f 403/403/403 408/408/408 407/407/407
f 380/380/380 410/410/410 409/409/409
f 410/410/410 412/412/412 411/411/411
f 415/415/415 414/414/414 413/413/413
f 412/412/412 415/415/415 416/416/416
f 414/414/414 418/418/418 417/417/417
f 418/418/418 404/404/404 419/419/419
f 420/420/420 368/368/368 367/367/367
f 368/368/368 420/420/420 390/390/390
f 388/388/388 390/390/390 421/421/421
f 387/387/387 388/388/388 421/421/421
f 391/391/391 389/389/389 387/387/387
f 422/422/422 392/392/392 391/391/391
f 393/393/393 392/392/392 422/422/422
f 394/394/394 393/393/393 423/423/423
f 395/395/395 394/394/394 423/423/423
f 397/397/397 398/398/398 424/424/424
f 425/425/425 399/399/399 397/397/397
f 400/400/400 399/399/399 425/425/425
f 401/401/401 400/400/400 426/426/426
f 405/405/405 401/401/401 426/426/426
f 419/419/419 404/404/404 427/427/427
f 407/407/407 408/408/408 428/428/428
f 429/429/429 403/403/403 407/407/407
f 403/403/403 429/429/429 402/402/402
f 404/404/404 402/402/402 427/427/427
f 380/380/380 430/430/430 379/379/379
f 380/380/380 409/409/409 430/430/430
f 410/410/410 431/431/431 409/409/409
f 431/431/431 410/410/410 411/411/411
f 412/412/412 416/416/416 411/411/411
f 415/415/415 432/432/432 416/416/416
f 415/415/415 413/413/413 432/432/432
f 413/413/413 414/414/414 433/433/433
f 433/433/433 414/414/414 417/417/417
f 418/418/418 419/419/419 417/417/417
f 436/436/436 435/435/435 434/434/434
f 439/439/439 438/438/438 437/437/437
f 435/435/435 436/436/436 439/439/439
f 441/441/441 434/434/434 440/440/440
f 442/442/442 441/441/441 440/440/440
f 445/445/445 444/444/444 443/443/443
f 447/447/447 446/446/446 445/445/445
f 448/448/448 446/446/446 447/447/447
f 450/450/450 448/448/448 449/449/449
f 451/451/451 450/450/450 449/449/449
f 436/436/436 438/438/438 439/439/439
f 441/441/441 436/436/436 434/434/434
f 452/452/452 441/441/441 442/442/442
f 446/446/446 444/444/444 445/445/445
f 450/450/450 446/446/446 448/448/448
f 453/453/453 450/450/450 451/451/451
f 456/456/456 455/455/455 454/454/454
f 456/456/456 457/457/457 455/455/455
f 457/457/457 459/459/459 458/458/458
f 458/458/458 459/459/459 460/460/460
f 462/462/462 461/461/461 460/460/460
f 465/465/465 464/464/464 463/463/463
f 465/465/465 466/466/466 464/464/464
f 468/468/468 467/467/467 466/466/466
f 467/467/467 468/468/468 469/469/469
f 471/471/471 470/470/470 469/469/469
f 473/473/473 472/472/472 470/470/470
f 473/473/473 474/474/474 472/472/472
f 476/476/476 475/475/475 474/474/474
f 475/475/475 476/476/476 477/477/477
f 479/479/479 478/478/478 477/477/477
f 482/482/482 481/481/481 480/480/480
f 482/482/482 483/483/483 481/481/481
f 483/483/483 485/485/485 484/484/484
f 484/484/484 485/485/485 486/486/486
f 488/488/488 487/487/487 486/486/486
f 489/489/489 453/453/453 451/451/451
f 491/491/491 490/490/490 489/489/489
f 492/492/492 490/490/490 491/491/491
f 494/494/494 492/492/492 493/493/493
f 495/495/495 494/494/494 493/493/493
f 498/498/498 497/497/497 496/496/496
f 500/500/500 499/499/499 498/498/498
f 499/499/499 500/500/500 501/501/501
f 503/503/503 501/501/501 502/502/502
f 504/504/504 503/503/503 502/502/502
f 505/505/505 456/456/456 454/454/454
f 456/456/456 459/459/459 457/457/457
f 459/459/459 462/462/462 460/460/460
f 506/506/506 465/465/465 463/463/463
f 465/465/465 468/468/468 466/466/466
f 468/468/468 471/471/471 469/469/469
f 507/507/507 473/473/473 470/470/470
f 473/473/473 476/476/476 474/474/474
f 476/476/476 479/479/479 477/477/477
f 508/508/508 482/482/482 480/480/480
f 482/482/482 485/485/485 483/483/483
f 485/485/485 488/488/488 486/486/486
f 490/490/490 453/453/453 489/489/489
f 494/494/494 490/490/490 492/492/492
f 509/509/509 494/494/494 495/495/495
f 499/499/499 497/497/497 498/498/498
f 503/503/503 499/499/499 501/501/501
f 510/510/510 503/503/503 504/504/504